<?xml version="1.0" encoding="UTF-8" standalone="no"?>
<!DOCTYPE svg PUBLIC "-//W3C//DTD SVG 1.1//EN"
 "http://www.w3.org/Graphics/SVG/1.1/DTD/svg11.dtd">
<!-- Generated by graphviz version 2.40.1 (0)
 -->
<!-- Title: perl6&#45;type&#45;graph Pages: 1 -->
<svg width="4016pt" height="116pt"
 viewBox="0.00 0.00 4016.32 116.00" xmlns="http://www.w3.org/2000/svg" xmlns:xlink="http://www.w3.org/1999/xlink">
<g id="graph0" class="graph" transform="scale(1 1) rotate(0) translate(4 112)">
<title>perl6&#45;type&#45;graph</title>
<polygon fill="#ffffff" stroke="transparent" points="-4,4 -4,-112 4012.3178,-112 4012.3178,4 -4,4"/>
<!-- Documentable::DocPage -->
<g id="node1" class="node">
<title>Documentable::DocPage</title>
<g id="a_node1"><a xlink:href="/type/Documentable::DocPage" xlink:title="Documentable::DocPage">
<ellipse fill="none" stroke="#6666ff" cx="2020.7843" cy="-90" rx="113.18" ry="18"/>
<text text-anchor="middle" x="2020.7843" y="-86.3" font-family="FreeSans" font-size="14.00" fill="#6666ff">Documentable::DocPage</text>
</a>
</g>
</g>
<!-- Documentable::DocPage::Index::Type -->
<g id="node2" class="node">
<title>Documentable::DocPage::Index::Type</title>
<g id="a_node2"><a xlink:href="/type/Documentable::DocPage::Index::Type" xlink:title="Documentable::DocPage::Index::Type">
<ellipse fill="none" stroke="#000000" cx="176.7843" cy="-18" rx="176.5689" ry="18"/>
<text text-anchor="middle" x="176.7843" y="-14.3" font-family="FreeSans" font-size="14.00" fill="#000000">Documentable::DocPage::Index::Type</text>
</a>
</g>
</g>
<!-- Documentable::DocPage::Index::Type&#45;&gt;Documentable::DocPage -->
<g id="edge1" class="edge">
<title>Documentable::DocPage::Index::Type&#45;&gt;Documentable::DocPage</title>
<path fill="none" stroke="#000000" d="M304.9523,-30.4034C337.1701,-33.5212 362.7843,-36 362.7843,-36 362.7843,-36 1517.2186,-73.5992 1899.4872,-86.0494"/>
<polygon fill="#000000" stroke="#000000" points="1899.6383,-89.5561 1909.747,-86.3836 1899.8663,-82.5598 1899.6383,-89.5561"/>
</g>
<!-- Documentable::DocPage::SubIndex::Routine -->
<g id="node3" class="node">
<title>Documentable::DocPage::SubIndex::Routine</title>
<g id="a_node3"><a xlink:href="/type/Documentable::DocPage::SubIndex::Routine" xlink:title="Documentable::DocPage::SubIndex::Routine">
<ellipse fill="none" stroke="#000000" cx="577.7843" cy="-18" rx="206.0634" ry="18"/>
<text text-anchor="middle" x="577.7843" y="-14.3" font-family="FreeSans" font-size="14.00" fill="#000000">Documentable::DocPage::SubIndex::Routine</text>
</a>
</g>
</g>
<!-- Documentable::DocPage::SubIndex::Routine&#45;&gt;Documentable::DocPage -->
<g id="edge2" class="edge">
<title>Documentable::DocPage::SubIndex::Routine&#45;&gt;Documentable::DocPage</title>
<path fill="none" stroke="#000000" d="M726.8161,-30.4771C763.6422,-33.5602 792.7843,-36 792.7843,-36 792.7843,-36 1592.5106,-71.1671 1901.211,-84.7419"/>
<polygon fill="#000000" stroke="#000000" points="1901.3936,-88.2532 1911.5377,-85.196 1901.7012,-81.26 1901.3936,-88.2532"/>
</g>
<!-- Documentable::DocPage::Index::Programs -->
<g id="node4" class="node">
<title>Documentable::DocPage::Index::Programs</title>
<g id="a_node4"><a xlink:href="/type/Documentable::DocPage::Index::Programs" xlink:title="Documentable::DocPage::Index::Programs">
<ellipse fill="none" stroke="#000000" cx="997.7843" cy="-18" rx="196.0654" ry="18"/>
<text text-anchor="middle" x="997.7843" y="-14.3" font-family="FreeSans" font-size="14.00" fill="#000000">Documentable::DocPage::Index::Programs</text>
</a>
</g>
</g>
<!-- Documentable::DocPage::Index::Programs&#45;&gt;Documentable::DocPage -->
<g id="edge3" class="edge">
<title>Documentable::DocPage::Index::Programs&#45;&gt;Documentable::DocPage</title>
<path fill="none" stroke="#000000" d="M1140.0154,-30.428C1175.565,-33.5342 1203.7843,-36 1203.7843,-36 1203.7843,-36 1680.832,-67.5307 1905.8701,-82.4047"/>
<polygon fill="#000000" stroke="#000000" points="1905.8559,-85.9113 1916.065,-83.0785 1906.3176,-78.9265 1905.8559,-85.9113"/>
</g>
<!-- Documentable::DocPage::Index::Language -->
<g id="node5" class="node">
<title>Documentable::DocPage::Index::Language</title>
<g id="a_node5"><a xlink:href="/type/Documentable::DocPage::Index::Language" xlink:title="Documentable::DocPage::Index::Language">
<ellipse fill="none" stroke="#000000" cx="1408.7843" cy="-18" rx="196.0654" ry="18"/>
<text text-anchor="middle" x="1408.7843" y="-14.3" font-family="FreeSans" font-size="14.00" fill="#000000">Documentable::DocPage::Index::Language</text>
</a>
</g>
</g>
<!-- Documentable::DocPage::Index::Language&#45;&gt;Documentable::DocPage -->
<g id="edge4" class="edge">
<title>Documentable::DocPage::Index::Language&#45;&gt;Documentable::DocPage</title>
<path fill="none" stroke="#000000" d="M1529.6958,-32.2249C1643.5901,-45.6242 1812.2816,-65.4703 1919.341,-78.0655"/>
<polygon fill="#000000" stroke="#000000" points="1919.1648,-81.5688 1929.5053,-79.2613 1919.9827,-74.6168 1919.1648,-81.5688"/>
</g>
<!-- Documentable::DocPage::Index::Routine -->
<g id="node6" class="node">
<title>Documentable::DocPage::Index::Routine</title>
<g id="a_node6"><a xlink:href="/type/Documentable::DocPage::Index::Routine" xlink:title="Documentable::DocPage::Index::Routine">
<ellipse fill="none" stroke="#000000" cx="1813.7843" cy="-18" rx="191.1661" ry="18"/>
<text text-anchor="middle" x="1813.7843" y="-14.3" font-family="FreeSans" font-size="14.00" fill="#000000">Documentable::DocPage::Index::Routine</text>
</a>
</g>
</g>
<!-- Documentable::DocPage::Index::Routine&#45;&gt;Documentable::DocPage -->
<g id="edge5" class="edge">
<title>Documentable::DocPage::Index::Routine&#45;&gt;Documentable::DocPage</title>
<path fill="none" stroke="#000000" d="M1863.8932,-35.4292C1894.1467,-45.9521 1932.7813,-59.3902 1964.1411,-70.298"/>
<polygon fill="#000000" stroke="#000000" points="1963.0278,-73.6164 1973.6226,-73.5959 1965.3275,-67.0049 1963.0278,-73.6164"/>
</g>
<!-- Documentable::DocPage::Primary::Language -->
<g id="node7" class="node">
<title>Documentable::DocPage::Primary::Language</title>
<g id="a_node7"><a xlink:href="/type/Documentable::DocPage::Primary::Language" xlink:title="Documentable::DocPage::Primary::Language">
<ellipse fill="none" stroke="#000000" cx="2228.7843" cy="-18" rx="206.0634" ry="18"/>
<text text-anchor="middle" x="2228.7843" y="-14.3" font-family="FreeSans" font-size="14.00" fill="#000000">Documentable::DocPage::Primary::Language</text>
</a>
</g>
</g>
<!-- Documentable::DocPage::Primary::Language&#45;&gt;Documentable::DocPage -->
<g id="edge6" class="edge">
<title>Documentable::DocPage::Primary::Language&#45;&gt;Documentable::DocPage</title>
<path fill="none" stroke="#000000" d="M2178.1678,-35.5211C2147.763,-46.0458 2109.0065,-59.4615 2077.562,-70.3462"/>
<polygon fill="#000000" stroke="#000000" points="2076.3603,-67.0583 2068.0554,-73.6369 2078.6502,-73.6732 2076.3603,-67.0583"/>
</g>
<!-- Documentable::DocPage::Secondary -->
<g id="node8" class="node">
<title>Documentable::DocPage::Secondary</title>
<g id="a_node8"><a xlink:href="/type/Documentable::DocPage::Secondary" xlink:title="Documentable::DocPage::Secondary">
<ellipse fill="none" stroke="#000000" cx="2619.7843" cy="-18" rx="167.0704" ry="18"/>
<text text-anchor="middle" x="2619.7843" y="-14.3" font-family="FreeSans" font-size="14.00" fill="#000000">Documentable::DocPage::Secondary</text>
</a>
</g>
</g>
<!-- Documentable::DocPage::Secondary&#45;&gt;Documentable::DocPage -->
<g id="edge7" class="edge">
<title>Documentable::DocPage::Secondary&#45;&gt;Documentable::DocPage</title>
<path fill="none" stroke="#000000" d="M2508.1704,-31.416C2397.1768,-44.7575 2228.4317,-65.0407 2121.4417,-77.9009"/>
<polygon fill="#000000" stroke="#000000" points="2120.7955,-74.4533 2111.2846,-79.1218 2121.6309,-81.4033 2120.7955,-74.4533"/>
</g>
<!-- Documentable::DocPage::Primary::Programs -->
<g id="node9" class="node">
<title>Documentable::DocPage::Primary::Programs</title>
<g id="a_node9"><a xlink:href="/type/Documentable::DocPage::Primary::Programs" xlink:title="Documentable::DocPage::Primary::Programs">
<ellipse fill="none" stroke="#000000" cx="3010.7843" cy="-18" rx="206.0634" ry="18"/>
<text text-anchor="middle" x="3010.7843" y="-14.3" font-family="FreeSans" font-size="14.00" fill="#000000">Documentable::DocPage::Primary::Programs</text>
</a>
</g>
</g>
<!-- Documentable::DocPage::Primary::Programs&#45;&gt;Documentable::DocPage -->
<g id="edge8" class="edge">
<title>Documentable::DocPage::Primary::Programs&#45;&gt;Documentable::DocPage</title>
<path fill="none" stroke="#000000" d="M2861.7525,-30.4771C2824.9264,-33.5602 2795.7843,-36 2795.7843,-36 2795.7843,-36 2349.9465,-67.0648 2134.5788,-82.0711"/>
<polygon fill="#000000" stroke="#000000" points="2134.2326,-78.5866 2124.5001,-82.7734 2134.7192,-85.5697 2134.2326,-78.5866"/>
</g>
<!-- Documentable::DocPage::SubIndex::Type -->
<g id="node10" class="node">
<title>Documentable::DocPage::SubIndex::Type</title>
<g id="a_node10"><a xlink:href="/type/Documentable::DocPage::SubIndex::Type" xlink:title="Documentable::DocPage::SubIndex::Type">
<ellipse fill="none" stroke="#000000" cx="3425.7843" cy="-18" rx="191.1661" ry="18"/>
<text text-anchor="middle" x="3425.7843" y="-14.3" font-family="FreeSans" font-size="14.00" fill="#000000">Documentable::DocPage::SubIndex::Type</text>
</a>
</g>
</g>
<!-- Documentable::DocPage::SubIndex::Type&#45;&gt;Documentable::DocPage -->
<g id="edge9" class="edge">
<title>Documentable::DocPage::SubIndex::Type&#45;&gt;Documentable::DocPage</title>
<path fill="none" stroke="#000000" d="M3287.4228,-30.4525C3253.0373,-33.5472 3225.7843,-36 3225.7843,-36 3225.7843,-36 2444.3196,-71.02 2140.0273,-84.6563"/>
<polygon fill="#000000" stroke="#000000" points="2139.6786,-81.1684 2129.8453,-85.1126 2139.992,-88.1613 2139.6786,-81.1684"/>
</g>
<!-- Documentable::DocPage::Primary::Type -->
<g id="node11" class="node">
<title>Documentable::DocPage::Primary::Type</title>
<g id="a_node11"><a xlink:href="/type/Documentable::DocPage::Primary::Type" xlink:title="Documentable::DocPage::Primary::Type">
<ellipse fill="none" stroke="#000000" cx="3821.7843" cy="-18" rx="186.5669" ry="18"/>
<text text-anchor="middle" x="3821.7843" y="-14.3" font-family="FreeSans" font-size="14.00" fill="#000000">Documentable::DocPage::Primary::Type</text>
</a>
</g>
</g>
<!-- Documentable::DocPage::Primary::Type&#45;&gt;Documentable::DocPage -->
<g id="edge10" class="edge">
<title>Documentable::DocPage::Primary::Type&#45;&gt;Documentable::DocPage</title>
<path fill="none" stroke="#000000" d="M3686.4577,-30.428C3652.6337,-33.5342 3625.7843,-36 3625.7843,-36 3625.7843,-36 2515.3699,-73.3597 2141.7674,-85.9295"/>
<polygon fill="#000000" stroke="#000000" points="2141.6123,-82.4327 2131.7357,-86.2671 2141.8478,-89.4287 2141.6123,-82.4327"/>
</g>
</g>
</svg>
