<?xml version="1.0" encoding="UTF-8" standalone="no"?>
<!DOCTYPE svg PUBLIC "-//W3C//DTD SVG 1.1//EN"
 "http://www.w3.org/Graphics/SVG/1.1/DTD/svg11.dtd">
<!-- Generated by graphviz version 2.40.1 (0)
 -->
<!-- Title: perl6&#45;type&#45;graph Pages: 1 -->
<svg width="215pt" height="188pt"
 viewBox="0.00 0.00 214.68 188.00" xmlns="http://www.w3.org/2000/svg" xmlns:xlink="http://www.w3.org/1999/xlink">
<g id="graph0" class="graph" transform="scale(1 1) rotate(0) translate(4 184)">
<title>perl6&#45;type&#45;graph</title>
<polygon fill="#ffffff" stroke="transparent" points="-4,4 -4,-184 210.6817,-184 210.6817,4 -4,4"/>
<!-- Documentable::Index -->
<g id="node1" class="node">
<title>Documentable::Index</title>
<g id="a_node1"><a xlink:href="/type/Documentable::Index" xlink:title="Documentable::Index">
<ellipse fill="none" stroke="#000000" cx="103.3408" cy="-18" rx="103.1819" ry="18"/>
<text text-anchor="middle" x="103.3408" y="-14.3" font-family="FreeSans" font-size="14.00" fill="#000000">Documentable::Index</text>
</a>
</g>
</g>
<!-- Documentable -->
<g id="node3" class="node">
<title>Documentable</title>
<g id="a_node3"><a xlink:href="/type/Documentable" xlink:title="Documentable">
<ellipse fill="none" stroke="#000000" cx="103.3408" cy="-90" rx="69.5877" ry="18"/>
<text text-anchor="middle" x="103.3408" y="-86.3" font-family="FreeSans" font-size="14.00" fill="#000000">Documentable</text>
</a>
</g>
</g>
<!-- Documentable::Index&#45;&gt;Documentable -->
<g id="edge1" class="edge">
<title>Documentable::Index&#45;&gt;Documentable</title>
<path fill="none" stroke="#000000" d="M103.3408,-36.1686C103.3408,-43.869 103.3408,-53.0257 103.3408,-61.5834"/>
<polygon fill="#000000" stroke="#000000" points="99.8409,-61.5867 103.3408,-71.5867 106.8409,-61.5868 99.8409,-61.5867"/>
</g>
<!-- Any -->
<g id="node2" class="node">
<title>Any</title>
<g id="a_node2"><a xlink:href="/type/Any" xlink:title="Any">
<ellipse fill="none" stroke="#000000" cx="103.3408" cy="-162" rx="27" ry="18"/>
<text text-anchor="middle" x="103.3408" y="-158.3" font-family="FreeSans" font-size="14.00" fill="#000000">Any</text>
</a>
</g>
</g>
<!-- Documentable&#45;&gt;Any -->
<g id="edge2" class="edge">
<title>Documentable&#45;&gt;Any</title>
<path fill="none" stroke="#000000" d="M103.3408,-108.1686C103.3408,-115.869 103.3408,-125.0257 103.3408,-133.5834"/>
<polygon fill="#000000" stroke="#000000" points="99.8409,-133.5867 103.3408,-143.5867 106.8409,-133.5868 99.8409,-133.5867"/>
</g>
</g>
</svg>
