<?xml version="1.0" encoding="UTF-8" standalone="no"?>
<!DOCTYPE svg PUBLIC "-//W3C//DTD SVG 1.1//EN"
 "http://www.w3.org/Graphics/SVG/1.1/DTD/svg11.dtd">
<!-- Generated by graphviz version 2.40.1 (0)
 -->
<!-- Title: perl6&#45;type&#45;graph Pages: 1 -->
<svg width="4016pt" height="116pt"
 viewBox="0.00 0.00 4015.62 116.00" xmlns="http://www.w3.org/2000/svg" xmlns:xlink="http://www.w3.org/1999/xlink">
<g id="graph0" class="graph" transform="scale(1 1) rotate(0) translate(4 112)">
<title>perl6&#45;type&#45;graph</title>
<polygon fill="#ffffff" stroke="transparent" points="-4,4 -4,-112 4011.6165,-112 4011.6165,4 -4,4"/>
<!-- Documentable::DocPage -->
<g id="node1" class="node">
<title>Documentable::DocPage</title>
<g id="a_node1"><a xlink:href="/type/Documentable::DocPage" xlink:title="Documentable::DocPage">
<ellipse fill="none" stroke="#6666ff" cx="1983.083" cy="-90" rx="113.18" ry="18"/>
<text text-anchor="middle" x="1983.083" y="-86.3" font-family="FreeSans" font-size="14.00" fill="#6666ff">Documentable::DocPage</text>
</a>
</g>
</g>
<!-- Documentable::DocPage::SubIndex::Type -->
<g id="node2" class="node">
<title>Documentable::DocPage::SubIndex::Type</title>
<g id="a_node2"><a xlink:href="/type/Documentable::DocPage::SubIndex::Type" xlink:title="Documentable::DocPage::SubIndex::Type">
<ellipse fill="none" stroke="#000000" cx="191.083" cy="-18" rx="191.1661" ry="18"/>
<text text-anchor="middle" x="191.083" y="-14.3" font-family="FreeSans" font-size="14.00" fill="#000000">Documentable::DocPage::SubIndex::Type</text>
</a>
</g>
</g>
<!-- Documentable::DocPage::SubIndex::Type&#45;&gt;Documentable::DocPage -->
<g id="edge1" class="edge">
<title>Documentable::DocPage::SubIndex::Type&#45;&gt;Documentable::DocPage</title>
<path fill="none" stroke="#000000" d="M329.4445,-30.4525C363.8301,-33.5472 391.083,-36 391.083,-36 391.083,-36 1490.6804,-73.2979 1862.1579,-85.8983"/>
<polygon fill="#000000" stroke="#000000" points="1862.2877,-89.4046 1872.4007,-86.2457 1862.5251,-82.4086 1862.2877,-89.4046"/>
</g>
<!-- Documentable::DocPage::Secondary -->
<g id="node3" class="node">
<title>Documentable::DocPage::Secondary</title>
<g id="a_node3"><a xlink:href="/type/Documentable::DocPage::Secondary" xlink:title="Documentable::DocPage::Secondary">
<ellipse fill="none" stroke="#000000" cx="567.083" cy="-18" rx="167.0704" ry="18"/>
<text text-anchor="middle" x="567.083" y="-14.3" font-family="FreeSans" font-size="14.00" fill="#000000">Documentable::DocPage::Secondary</text>
</a>
</g>
</g>
<!-- Documentable::DocPage::Secondary&#45;&gt;Documentable::DocPage -->
<g id="edge2" class="edge">
<title>Documentable::DocPage::Secondary&#45;&gt;Documentable::DocPage</title>
<path fill="none" stroke="#000000" d="M688.3603,-30.4034C718.846,-33.5212 743.083,-36 743.083,-36 743.083,-36 1552.5579,-71.2513 1863.4581,-84.7905"/>
<polygon fill="#000000" stroke="#000000" points="1863.714,-88.3049 1873.8568,-85.2434 1864.0186,-81.3115 1863.714,-88.3049"/>
</g>
<!-- Documentable::DocPage::Index::Language -->
<g id="node4" class="node">
<title>Documentable::DocPage::Index::Language</title>
<g id="a_node4"><a xlink:href="/type/Documentable::DocPage::Index::Language" xlink:title="Documentable::DocPage::Index::Language">
<ellipse fill="none" stroke="#000000" cx="948.083" cy="-18" rx="196.0654" ry="18"/>
<text text-anchor="middle" x="948.083" y="-14.3" font-family="FreeSans" font-size="14.00" fill="#000000">Documentable::DocPage::Index::Language</text>
</a>
</g>
</g>
<!-- Documentable::DocPage::Index::Language&#45;&gt;Documentable::DocPage -->
<g id="edge3" class="edge">
<title>Documentable::DocPage::Index::Language&#45;&gt;Documentable::DocPage</title>
<path fill="none" stroke="#000000" d="M1089.9036,-30.4525C1125.1488,-33.5472 1153.083,-36 1153.083,-36 1153.083,-36 1640.6476,-67.7211 1868.4008,-82.5387"/>
<polygon fill="#000000" stroke="#000000" points="1868.1773,-86.0315 1878.3835,-83.1882 1868.6319,-79.0463 1868.1773,-86.0315"/>
</g>
<!-- Documentable::DocPage::Primary::Programs -->
<g id="node5" class="node">
<title>Documentable::DocPage::Primary::Programs</title>
<g id="a_node5"><a xlink:href="/type/Documentable::DocPage::Primary::Programs" xlink:title="Documentable::DocPage::Primary::Programs">
<ellipse fill="none" stroke="#000000" cx="1368.083" cy="-18" rx="206.0634" ry="18"/>
<text text-anchor="middle" x="1368.083" y="-14.3" font-family="FreeSans" font-size="14.00" fill="#000000">Documentable::DocPage::Primary::Programs</text>
</a>
</g>
</g>
<!-- Documentable::DocPage::Primary::Programs&#45;&gt;Documentable::DocPage -->
<g id="edge4" class="edge">
<title>Documentable::DocPage::Primary::Programs&#45;&gt;Documentable::DocPage</title>
<path fill="none" stroke="#000000" d="M1491.4283,-32.4404C1606.0737,-45.8623 1774.7879,-65.6142 1881.7656,-78.1384"/>
<polygon fill="#000000" stroke="#000000" points="1881.5825,-81.6408 1891.9217,-79.3275 1882.3965,-74.6883 1881.5825,-81.6408"/>
</g>
<!-- Documentable::DocPage::Index::Programs -->
<g id="node6" class="node">
<title>Documentable::DocPage::Index::Programs</title>
<g id="a_node6"><a xlink:href="/type/Documentable::DocPage::Index::Programs" xlink:title="Documentable::DocPage::Index::Programs">
<ellipse fill="none" stroke="#000000" cx="1788.083" cy="-18" rx="196.0654" ry="18"/>
<text text-anchor="middle" x="1788.083" y="-14.3" font-family="FreeSans" font-size="14.00" fill="#000000">Documentable::DocPage::Index::Programs</text>
</a>
</g>
</g>
<!-- Documentable::DocPage::Index::Programs&#45;&gt;Documentable::DocPage -->
<g id="edge5" class="edge">
<title>Documentable::DocPage::Index::Programs&#45;&gt;Documentable::DocPage</title>
<path fill="none" stroke="#000000" d="M1835.7854,-35.6132C1863.8459,-45.974 1899.4287,-59.1122 1928.5914,-69.88"/>
<polygon fill="#000000" stroke="#000000" points="1927.6218,-73.2529 1938.2151,-73.4334 1930.0465,-66.6862 1927.6218,-73.2529"/>
</g>
<!-- Documentable::DocPage::Index::Type -->
<g id="node7" class="node">
<title>Documentable::DocPage::Index::Type</title>
<g id="a_node7"><a xlink:href="/type/Documentable::DocPage::Index::Type" xlink:title="Documentable::DocPage::Index::Type">
<ellipse fill="none" stroke="#000000" cx="2179.083" cy="-18" rx="176.5689" ry="18"/>
<text text-anchor="middle" x="2179.083" y="-14.3" font-family="FreeSans" font-size="14.00" fill="#000000">Documentable::DocPage::Index::Type</text>
</a>
</g>
</g>
<!-- Documentable::DocPage::Index::Type&#45;&gt;Documentable::DocPage -->
<g id="edge6" class="edge">
<title>Documentable::DocPage::Index::Type&#45;&gt;Documentable::DocPage</title>
<path fill="none" stroke="#000000" d="M2131.6369,-35.4292C2103.3399,-45.824 2067.2991,-59.0635 2037.8037,-69.8985"/>
<polygon fill="#000000" stroke="#000000" points="2036.2523,-66.7397 2028.0725,-73.4733 2038.666,-73.3104 2036.2523,-66.7397"/>
</g>
<!-- Documentable::DocPage::SubIndex::Routine -->
<g id="node8" class="node">
<title>Documentable::DocPage::SubIndex::Routine</title>
<g id="a_node8"><a xlink:href="/type/Documentable::DocPage::SubIndex::Routine" xlink:title="Documentable::DocPage::SubIndex::Routine">
<ellipse fill="none" stroke="#000000" cx="2580.083" cy="-18" rx="206.0634" ry="18"/>
<text text-anchor="middle" x="2580.083" y="-14.3" font-family="FreeSans" font-size="14.00" fill="#000000">Documentable::DocPage::SubIndex::Routine</text>
</a>
</g>
</g>
<!-- Documentable::DocPage::SubIndex::Routine&#45;&gt;Documentable::DocPage -->
<g id="edge7" class="edge">
<title>Documentable::DocPage::SubIndex::Routine&#45;&gt;Documentable::DocPage</title>
<path fill="none" stroke="#000000" d="M2458.9116,-32.6136C2348.4163,-45.9397 2187.0682,-65.3988 2083.5723,-77.8807"/>
<polygon fill="#000000" stroke="#000000" points="2082.9385,-74.4317 2073.4296,-79.1039 2083.7767,-81.3813 2082.9385,-74.4317"/>
</g>
<!-- Documentable::DocPage::Primary::Language -->
<g id="node9" class="node">
<title>Documentable::DocPage::Primary::Language</title>
<g id="a_node9"><a xlink:href="/type/Documentable::DocPage::Primary::Language" xlink:title="Documentable::DocPage::Primary::Language">
<ellipse fill="none" stroke="#000000" cx="3010.083" cy="-18" rx="206.0634" ry="18"/>
<text text-anchor="middle" x="3010.083" y="-14.3" font-family="FreeSans" font-size="14.00" fill="#000000">Documentable::DocPage::Primary::Language</text>
</a>
</g>
</g>
<!-- Documentable::DocPage::Primary::Language&#45;&gt;Documentable::DocPage -->
<g id="edge8" class="edge">
<title>Documentable::DocPage::Primary::Language&#45;&gt;Documentable::DocPage</title>
<path fill="none" stroke="#000000" d="M2861.0513,-30.4771C2824.2252,-33.5602 2795.083,-36 2795.083,-36 2795.083,-36 2321.5514,-67.491 2097.7165,-82.3766"/>
<polygon fill="#000000" stroke="#000000" points="2097.3212,-78.8951 2087.5755,-83.051 2097.7858,-85.8796 2097.3212,-78.8951"/>
</g>
<!-- Documentable::DocPage::Index::Routine -->
<g id="node10" class="node">
<title>Documentable::DocPage::Index::Routine</title>
<g id="a_node10"><a xlink:href="/type/Documentable::DocPage::Index::Routine" xlink:title="Documentable::DocPage::Index::Routine">
<ellipse fill="none" stroke="#000000" cx="3425.083" cy="-18" rx="191.1661" ry="18"/>
<text text-anchor="middle" x="3425.083" y="-14.3" font-family="FreeSans" font-size="14.00" fill="#000000">Documentable::DocPage::Index::Routine</text>
</a>
</g>
</g>
<!-- Documentable::DocPage::Index::Routine&#45;&gt;Documentable::DocPage -->
<g id="edge9" class="edge">
<title>Documentable::DocPage::Index::Routine&#45;&gt;Documentable::DocPage</title>
<path fill="none" stroke="#000000" d="M3286.7216,-30.4525C3252.336,-33.5472 3225.083,-36 3225.083,-36 3225.083,-36 2413.818,-71.2724 2102.622,-84.8027"/>
<polygon fill="#000000" stroke="#000000" points="2102.0522,-81.324 2092.2137,-85.2552 2102.3564,-88.3174 2102.0522,-81.324"/>
</g>
<!-- Documentable::DocPage::Primary::Type -->
<g id="node11" class="node">
<title>Documentable::DocPage::Primary::Type</title>
<g id="a_node11"><a xlink:href="/type/Documentable::DocPage::Primary::Type" xlink:title="Documentable::DocPage::Primary::Type">
<ellipse fill="none" stroke="#000000" cx="3821.083" cy="-18" rx="186.5669" ry="18"/>
<text text-anchor="middle" x="3821.083" y="-14.3" font-family="FreeSans" font-size="14.00" fill="#000000">Documentable::DocPage::Primary::Type</text>
</a>
</g>
</g>
<!-- Documentable::DocPage::Primary::Type&#45;&gt;Documentable::DocPage -->
<g id="edge10" class="edge">
<title>Documentable::DocPage::Primary::Type&#45;&gt;Documentable::DocPage</title>
<path fill="none" stroke="#000000" d="M3685.7564,-30.428C3651.9324,-33.5342 3625.083,-36 3625.083,-36 3625.083,-36 2483.7773,-73.5338 2104.1993,-86.0169"/>
<polygon fill="#000000" stroke="#000000" points="2103.8899,-82.5251 2094.0104,-86.352 2104.1201,-89.5213 2103.8899,-82.5251"/>
</g>
</g>
</svg>
