<?xml version="1.0" encoding="UTF-8" standalone="no"?>
<!DOCTYPE svg PUBLIC "-//W3C//DTD SVG 1.1//EN"
 "http://www.w3.org/Graphics/SVG/1.1/DTD/svg11.dtd">
<!-- Generated by graphviz version 2.40.1 (0)
 -->
<!-- Title: perl6&#45;type&#45;graph Pages: 1 -->
<svg width="4017pt" height="116pt"
 viewBox="0.00 0.00 4017.12 116.00" xmlns="http://www.w3.org/2000/svg" xmlns:xlink="http://www.w3.org/1999/xlink">
<g id="graph0" class="graph" transform="scale(1 1) rotate(0) translate(4 112)">
<title>perl6&#45;type&#45;graph</title>
<polygon fill="#ffffff" stroke="transparent" points="-4,4 -4,-112 4013.1182,-112 4013.1182,4 -4,4"/>
<!-- Documentable::DocPage -->
<g id="node1" class="node">
<title>Documentable::DocPage</title>
<g id="a_node1"><a xlink:href="/type/Documentable::DocPage" xlink:title="Documentable::DocPage">
<ellipse fill="none" stroke="#6666ff" cx="2027.0352" cy="-90" rx="113.18" ry="18"/>
<text text-anchor="middle" x="2027.0352" y="-86.3" font-family="FreeSans" font-size="14.00" fill="#6666ff">Documentable::DocPage</text>
</a>
</g>
</g>
<!-- Documentable::DocPage::Secondary -->
<g id="node2" class="node">
<title>Documentable::DocPage::Secondary</title>
<g id="a_node2"><a xlink:href="/type/Documentable::DocPage::Secondary" xlink:title="Documentable::DocPage::Secondary">
<ellipse fill="none" stroke="#000000" cx="167.0352" cy="-18" rx="167.0704" ry="18"/>
<text text-anchor="middle" x="167.0352" y="-14.3" font-family="FreeSans" font-size="14.00" fill="#000000">Documentable::DocPage::Secondary</text>
</a>
</g>
</g>
<!-- Documentable::DocPage::Secondary&#45;&gt;Documentable::DocPage -->
<g id="edge1" class="edge">
<title>Documentable::DocPage::Secondary&#45;&gt;Documentable::DocPage</title>
<path fill="none" stroke="#000000" d="M288.3124,-30.4034C318.7981,-33.5212 343.0352,-36 343.0352,-36 343.0352,-36 1519.5544,-73.7269 1905.8051,-86.1126"/>
<polygon fill="#000000" stroke="#000000" points="1905.7849,-89.6136 1915.892,-86.436 1906.0093,-82.6172 1905.7849,-89.6136"/>
</g>
<!-- Documentable::DocPage::Primary::Programs -->
<g id="node3" class="node">
<title>Documentable::DocPage::Primary::Programs</title>
<g id="a_node3"><a xlink:href="/type/Documentable::DocPage::Primary::Programs" xlink:title="Documentable::DocPage::Primary::Programs">
<ellipse fill="none" stroke="#000000" cx="558.0352" cy="-18" rx="206.0634" ry="18"/>
<text text-anchor="middle" x="558.0352" y="-14.3" font-family="FreeSans" font-size="14.00" fill="#000000">Documentable::DocPage::Primary::Programs</text>
</a>
</g>
</g>
<!-- Documentable::DocPage::Primary::Programs&#45;&gt;Documentable::DocPage -->
<g id="edge2" class="edge">
<title>Documentable::DocPage::Primary::Programs&#45;&gt;Documentable::DocPage</title>
<path fill="none" stroke="#000000" d="M707.067,-30.4771C743.8931,-33.5602 773.0352,-36 773.0352,-36 773.0352,-36 1594.4177,-71.3705 1907.6489,-84.859"/>
<polygon fill="#000000" stroke="#000000" points="1907.53,-88.357 1917.6714,-85.2906 1907.8313,-81.3635 1907.53,-88.357"/>
</g>
<!-- Documentable::DocPage::Primary::Language -->
<g id="node4" class="node">
<title>Documentable::DocPage::Primary::Language</title>
<g id="a_node4"><a xlink:href="/type/Documentable::DocPage::Primary::Language" xlink:title="Documentable::DocPage::Primary::Language">
<ellipse fill="none" stroke="#000000" cx="988.0352" cy="-18" rx="206.0634" ry="18"/>
<text text-anchor="middle" x="988.0352" y="-14.3" font-family="FreeSans" font-size="14.00" fill="#000000">Documentable::DocPage::Primary::Language</text>
</a>
</g>
</g>
<!-- Documentable::DocPage::Primary::Language&#45;&gt;Documentable::DocPage -->
<g id="edge3" class="edge">
<title>Documentable::DocPage::Primary::Language&#45;&gt;Documentable::DocPage</title>
<path fill="none" stroke="#000000" d="M1137.067,-30.4771C1173.8931,-33.5602 1203.0352,-36 1203.0352,-36 1203.0352,-36 1685.3822,-67.6101 1911.9922,-82.4608"/>
<polygon fill="#000000" stroke="#000000" points="1912.0494,-85.9719 1922.2569,-83.1335 1912.5072,-78.9869 1912.0494,-85.9719"/>
</g>
<!-- Documentable::DocPage::SubIndex::Routine -->
<g id="node5" class="node">
<title>Documentable::DocPage::SubIndex::Routine</title>
<g id="a_node5"><a xlink:href="/type/Documentable::DocPage::SubIndex::Routine" xlink:title="Documentable::DocPage::SubIndex::Routine">
<ellipse fill="none" stroke="#000000" cx="1418.0352" cy="-18" rx="206.0634" ry="18"/>
<text text-anchor="middle" x="1418.0352" y="-14.3" font-family="FreeSans" font-size="14.00" fill="#000000">Documentable::DocPage::SubIndex::Routine</text>
</a>
</g>
</g>
<!-- Documentable::DocPage::SubIndex::Routine&#45;&gt;Documentable::DocPage -->
<g id="edge4" class="edge">
<title>Documentable::DocPage::SubIndex::Routine&#45;&gt;Documentable::DocPage</title>
<path fill="none" stroke="#000000" d="M1540.5428,-32.4837C1653.7702,-45.8701 1820.0268,-65.5261 1925.8873,-78.0416"/>
<polygon fill="#000000" stroke="#000000" points="1925.5977,-81.5317 1935.9395,-79.2301 1926.4196,-74.5801 1925.5977,-81.5317"/>
</g>
<!-- Documentable::DocPage::Primary::Type -->
<g id="node6" class="node">
<title>Documentable::DocPage::Primary::Type</title>
<g id="a_node6"><a xlink:href="/type/Documentable::DocPage::Primary::Type" xlink:title="Documentable::DocPage::Primary::Type">
<ellipse fill="none" stroke="#000000" cx="1829.0352" cy="-18" rx="186.5669" ry="18"/>
<text text-anchor="middle" x="1829.0352" y="-14.3" font-family="FreeSans" font-size="14.00" fill="#000000">Documentable::DocPage::Primary::Type</text>
</a>
</g>
</g>
<!-- Documentable::DocPage::Primary::Type&#45;&gt;Documentable::DocPage -->
<g id="edge5" class="edge">
<title>Documentable::DocPage::Primary::Type&#45;&gt;Documentable::DocPage</title>
<path fill="none" stroke="#000000" d="M1876.9655,-35.4292C1905.6755,-45.8692 1942.2765,-59.1787 1972.1444,-70.0397"/>
<polygon fill="#000000" stroke="#000000" points="1970.9926,-73.3451 1981.5867,-73.4733 1973.3849,-66.7665 1970.9926,-73.3451"/>
</g>
<!-- Documentable::DocPage::SubIndex::Type -->
<g id="node7" class="node">
<title>Documentable::DocPage::SubIndex::Type</title>
<g id="a_node7"><a xlink:href="/type/Documentable::DocPage::SubIndex::Type" xlink:title="Documentable::DocPage::SubIndex::Type">
<ellipse fill="none" stroke="#000000" cx="2225.0352" cy="-18" rx="191.1661" ry="18"/>
<text text-anchor="middle" x="2225.0352" y="-14.3" font-family="FreeSans" font-size="14.00" fill="#000000">Documentable::DocPage::SubIndex::Type</text>
</a>
</g>
</g>
<!-- Documentable::DocPage::SubIndex::Type&#45;&gt;Documentable::DocPage -->
<g id="edge6" class="edge">
<title>Documentable::DocPage::SubIndex::Type&#45;&gt;Documentable::DocPage</title>
<path fill="none" stroke="#000000" d="M2177.1049,-35.4292C2148.3948,-45.8692 2111.7939,-59.1787 2081.9259,-70.0397"/>
<polygon fill="#000000" stroke="#000000" points="2080.6855,-66.7665 2072.4837,-73.4733 2083.0777,-73.3451 2080.6855,-66.7665"/>
</g>
<!-- Documentable::DocPage::Index::Type -->
<g id="node8" class="node">
<title>Documentable::DocPage::Index::Type</title>
<g id="a_node8"><a xlink:href="/type/Documentable::DocPage::Index::Type" xlink:title="Documentable::DocPage::Index::Type">
<ellipse fill="none" stroke="#000000" cx="2611.0352" cy="-18" rx="176.5689" ry="18"/>
<text text-anchor="middle" x="2611.0352" y="-14.3" font-family="FreeSans" font-size="14.00" fill="#000000">Documentable::DocPage::Index::Type</text>
</a>
</g>
</g>
<!-- Documentable::DocPage::Index::Type&#45;&gt;Documentable::DocPage -->
<g id="edge7" class="edge">
<title>Documentable::DocPage::Index::Type&#45;&gt;Documentable::DocPage</title>
<path fill="none" stroke="#000000" d="M2498.4341,-31.8823C2390.8155,-45.1504 2230.1159,-64.9627 2126.9378,-77.6832"/>
<polygon fill="#000000" stroke="#000000" points="2126.3224,-74.2325 2116.8259,-78.9299 2127.179,-81.1799 2126.3224,-74.2325"/>
</g>
<!-- Documentable::DocPage::Index::Programs -->
<g id="node9" class="node">
<title>Documentable::DocPage::Index::Programs</title>
<g id="a_node9"><a xlink:href="/type/Documentable::DocPage::Index::Programs" xlink:title="Documentable::DocPage::Index::Programs">
<ellipse fill="none" stroke="#000000" cx="3002.0352" cy="-18" rx="196.0654" ry="18"/>
<text text-anchor="middle" x="3002.0352" y="-14.3" font-family="FreeSans" font-size="14.00" fill="#000000">Documentable::DocPage::Index::Programs</text>
</a>
</g>
</g>
<!-- Documentable::DocPage::Index::Programs&#45;&gt;Documentable::DocPage -->
<g id="edge8" class="edge">
<title>Documentable::DocPage::Index::Programs&#45;&gt;Documentable::DocPage</title>
<path fill="none" stroke="#000000" d="M2860.2147,-30.4525C2824.9695,-33.5472 2797.0352,-36 2797.0352,-36 2797.0352,-36 2355.1958,-66.9861 2140.9102,-82.014"/>
<polygon fill="#000000" stroke="#000000" points="2140.6114,-78.5262 2130.8808,-82.7173 2141.1012,-85.5091 2140.6114,-78.5262"/>
</g>
<!-- Documentable::DocPage::Index::Language -->
<g id="node10" class="node">
<title>Documentable::DocPage::Index::Language</title>
<g id="a_node10"><a xlink:href="/type/Documentable::DocPage::Index::Language" xlink:title="Documentable::DocPage::Index::Language">
<ellipse fill="none" stroke="#000000" cx="3413.0352" cy="-18" rx="196.0654" ry="18"/>
<text text-anchor="middle" x="3413.0352" y="-14.3" font-family="FreeSans" font-size="14.00" fill="#000000">Documentable::DocPage::Index::Language</text>
</a>
</g>
</g>
<!-- Documentable::DocPage::Index::Language&#45;&gt;Documentable::DocPage -->
<g id="edge9" class="edge">
<title>Documentable::DocPage::Index::Language&#45;&gt;Documentable::DocPage</title>
<path fill="none" stroke="#000000" d="M3270.8041,-30.428C3235.2544,-33.5342 3207.0352,-36 3207.0352,-36 3207.0352,-36 2445.4493,-70.8522 2145.956,-84.5579"/>
<polygon fill="#000000" stroke="#000000" points="2145.7612,-81.063 2135.9317,-85.0166 2146.0812,-88.0557 2145.7612,-81.063"/>
</g>
<!-- Documentable::DocPage::Index::Routine -->
<g id="node11" class="node">
<title>Documentable::DocPage::Index::Routine</title>
<g id="a_node11"><a xlink:href="/type/Documentable::DocPage::Index::Routine" xlink:title="Documentable::DocPage::Index::Routine">
<ellipse fill="none" stroke="#000000" cx="3818.0352" cy="-18" rx="191.1661" ry="18"/>
<text text-anchor="middle" x="3818.0352" y="-14.3" font-family="FreeSans" font-size="14.00" fill="#000000">Documentable::DocPage::Index::Routine</text>
</a>
</g>
</g>
<!-- Documentable::DocPage::Index::Routine&#45;&gt;Documentable::DocPage -->
<g id="edge10" class="edge">
<title>Documentable::DocPage::Index::Routine&#45;&gt;Documentable::DocPage</title>
<path fill="none" stroke="#000000" d="M3679.6737,-30.4525C3645.2881,-33.5472 3618.0352,-36 3618.0352,-36 3618.0352,-36 2519.1286,-73.2979 2147.8844,-85.8983"/>
<polygon fill="#000000" stroke="#000000" points="2147.5235,-82.4084 2137.648,-86.2457 2147.761,-89.4044 2147.5235,-82.4084"/>
</g>
</g>
</svg>
