<?xml version="1.0" encoding="UTF-8" standalone="no"?>
<!DOCTYPE svg PUBLIC "-//W3C//DTD SVG 1.1//EN"
 "http://www.w3.org/Graphics/SVG/1.1/DTD/svg11.dtd">
<!-- Generated by graphviz version 2.40.1 (0)
 -->
<!-- Title: perl6&#45;type&#45;graph Pages: 1 -->
<svg width="932pt" height="1622pt"
 viewBox="0.00 0.00 931.83 1622.00" xmlns="http://www.w3.org/2000/svg" xmlns:xlink="http://www.w3.org/1999/xlink">
<g id="graph0" class="graph" transform="scale(1 1) rotate(0) translate(4 1618)">
<title>perl6&#45;type&#45;graph</title>
<polygon fill="#ffffff" stroke="transparent" points="-4,4 -4,-1618 927.8258,-1618 927.8258,4 -4,4"/>
<g id="clust1" class="cluster">
<title>cluster: Mu children</title>
</g>
<g id="clust2" class="cluster">
<title>cluster: Pod:: top level</title>
</g>
<g id="clust3" class="cluster">
<title>cluster: Date/time handling</title>
</g>
<g id="clust4" class="cluster">
<title>cluster: Collection roles</title>
</g>
<!-- Any -->
<g id="node1" class="node">
<title>Any</title>
<g id="a_node1"><a xlink:href="/type/Any" xlink:title="Any">
<ellipse fill="none" stroke="#000000" cx="857.7803" cy="-288" rx="27" ry="18"/>
<text text-anchor="middle" x="857.7803" y="-284.3" font-family="FreeSans" font-size="14.00" fill="#000000">Any</text>
</a>
</g>
</g>
<!-- Junction -->
<g id="node2" class="node">
<title>Junction</title>
<ellipse fill="none" stroke="#000000" cx="857.7803" cy="-234" rx="50.0912" ry="18"/>
<text text-anchor="middle" x="857.7803" y="-230.3" font-family="Times,serif" font-size="14.00" fill="#000000">Junction</text>
</g>
<!-- Pod::Config -->
<g id="node3" class="node">
<title>Pod::Config</title>
<ellipse fill="none" stroke="#000000" cx="206.0317" cy="-720" rx="64.189" ry="18"/>
<text text-anchor="middle" x="206.0317" y="-716.3" font-family="Times,serif" font-size="14.00" fill="#000000">Pod::Config</text>
</g>
<!-- Pod::Block -->
<g id="node4" class="node">
<title>Pod::Block</title>
<ellipse fill="none" stroke="#000000" cx="206.0317" cy="-666" rx="59.5901" ry="18"/>
<text text-anchor="middle" x="206.0317" y="-662.3" font-family="Times,serif" font-size="14.00" fill="#000000">Pod::Block</text>
</g>
<!-- Date -->
<g id="node5" class="node">
<title>Date</title>
<ellipse fill="none" stroke="#000000" cx="206.0317" cy="-888" rx="30.5947" ry="18"/>
<text text-anchor="middle" x="206.0317" y="-884.3" font-family="Times,serif" font-size="14.00" fill="#000000">Date</text>
</g>
<!-- DateTime -->
<g id="node6" class="node">
<title>DateTime</title>
<ellipse fill="none" stroke="#000000" cx="206.0317" cy="-834" rx="50.0912" ry="18"/>
<text text-anchor="middle" x="206.0317" y="-830.3" font-family="Times,serif" font-size="14.00" fill="#000000">DateTime</text>
</g>
<!-- DateTime&#45;local&#45;timezone -->
<g id="node7" class="node">
<title>DateTime&#45;local&#45;timezone</title>
<ellipse fill="none" stroke="#000000" cx="206.0317" cy="-780" rx="122.6784" ry="18"/>
<text text-anchor="middle" x="206.0317" y="-776.3" font-family="Times,serif" font-size="14.00" fill="#000000">DateTime&#45;local&#45;timezone</text>
</g>
<!-- Positional -->
<g id="node8" class="node">
<title>Positional</title>
<ellipse fill="none" stroke="#000000" cx="206.0317" cy="-1056" rx="59.5901" ry="18"/>
<text text-anchor="middle" x="206.0317" y="-1052.3" font-family="Times,serif" font-size="14.00" fill="#000000">Positional</text>
</g>
<!-- Associative -->
<g id="node9" class="node">
<title>Associative</title>
<ellipse fill="none" stroke="#000000" cx="206.0317" cy="-1002" rx="64.189" ry="18"/>
<text text-anchor="middle" x="206.0317" y="-998.3" font-family="Times,serif" font-size="14.00" fill="#000000">Associative</text>
</g>
<!-- Baggy -->
<g id="node10" class="node">
<title>Baggy</title>
<ellipse fill="none" stroke="#000000" cx="206.0317" cy="-948" rx="35.194" ry="18"/>
<text text-anchor="middle" x="206.0317" y="-944.3" font-family="Times,serif" font-size="14.00" fill="#000000">Baggy</text>
</g>
<!-- Documentable -->
<g id="node11" class="node">
<title>Documentable</title>
<g id="a_node11"><a xlink:href="/type/Documentable" xlink:title="Documentable">
<ellipse fill="none" stroke="#000000" cx="609.8991" cy="-558" rx="69.5877" ry="18"/>
<text text-anchor="middle" x="609.8991" y="-554.3" font-family="FreeSans" font-size="14.00" fill="#000000">Documentable</text>
</a>
</g>
</g>
<!-- Documentable&#45;&gt;Any -->
<g id="edge1" class="edge">
<title>Documentable&#45;&gt;Any</title>
<path fill="none" stroke="#000000" d="M668.7833,-548.176C715.0561,-540.456 771.7347,-531 771.7347,-531 771.7347,-531 825.4364,-379.3419 847.9906,-315.6469"/>
<polygon fill="#000000" stroke="#000000" points="851.4145,-316.4631 851.4531,-305.8684 844.8159,-314.1266 851.4145,-316.4631"/>
</g>
<!-- Documentable::Config -->
<g id="node12" class="node">
<title>Documentable::Config</title>
<g id="a_node12"><a xlink:href="/type/Documentable::Config" xlink:title="Documentable::Config">
<ellipse fill="none" stroke="#000000" cx="609.8991" cy="-504" rx="108.5808" ry="18"/>
<text text-anchor="middle" x="609.8991" y="-500.3" font-family="FreeSans" font-size="14.00" fill="#000000">Documentable::Config</text>
</a>
</g>
</g>
<!-- Documentable::Config&#45;&gt;Any -->
<g id="edge2" class="edge">
<title>Documentable::Config&#45;&gt;Any</title>
<path fill="none" stroke="#000000" d="M686.5515,-491.2116C728.381,-484.233 771.7347,-477 771.7347,-477 771.7347,-477 821.8679,-366.8819 845.6004,-314.7532"/>
<polygon fill="#000000" stroke="#000000" points="848.8814,-315.9933 849.8395,-305.4419 842.5106,-313.0929 848.8814,-315.9933"/>
</g>
<!-- Documentable::DocPage -->
<g id="node13" class="node">
<title>Documentable::DocPage</title>
<g id="a_node13"><a xlink:href="/type/Documentable::DocPage" xlink:title="Documentable::DocPage">
<ellipse fill="none" stroke="#6666ff" cx="609.8991" cy="-1353" rx="113.18" ry="18"/>
<text text-anchor="middle" x="609.8991" y="-1349.3" font-family="FreeSans" font-size="14.00" fill="#6666ff">Documentable::DocPage</text>
</a>
</g>
</g>
<!-- Documentable::DocPage::Factory -->
<g id="node14" class="node">
<title>Documentable::DocPage::Factory</title>
<g id="a_node14"><a xlink:href="/type/Documentable::DocPage::Factory" xlink:title="Documentable::DocPage::Factory">
<ellipse fill="none" stroke="#000000" cx="609.8991" cy="-450" rx="157.0724" ry="18"/>
<text text-anchor="middle" x="609.8991" y="-446.3" font-family="FreeSans" font-size="14.00" fill="#000000">Documentable::DocPage::Factory</text>
</a>
</g>
</g>
<!-- Documentable::DocPage::Factory&#45;&gt;Any -->
<g id="edge3" class="edge">
<title>Documentable::DocPage::Factory&#45;&gt;Any</title>
<path fill="none" stroke="#000000" d="M699.3371,-435.0785C736.7653,-428.8342 771.7347,-423 771.7347,-423 771.7347,-423 816.5216,-352.7322 841.4717,-313.5872"/>
<polygon fill="#000000" stroke="#000000" points="844.6331,-315.1389 847.0565,-304.8249 838.7302,-311.3764 844.6331,-315.1389"/>
</g>
<!-- Documentable::DocPage::Index -->
<g id="node15" class="node">
<title>Documentable::DocPage::Index</title>
<g id="a_node15"><a xlink:href="/type/Documentable::DocPage::Index" xlink:title="Documentable::DocPage::Index">
<ellipse fill="none" stroke="#000000" cx="609.8991" cy="-396" rx="147.5738" ry="18"/>
<text text-anchor="middle" x="609.8991" y="-392.3" font-family="FreeSans" font-size="14.00" fill="#000000">Documentable::DocPage::Index</text>
</a>
</g>
</g>
<!-- Documentable::DocPage::Index&#45;&gt;Any -->
<g id="edge4" class="edge">
<title>Documentable::DocPage::Index&#45;&gt;Any</title>
<path fill="none" stroke="#000000" d="M697.4481,-381.3937C735.58,-375.0319 771.7347,-369 771.7347,-369 771.7347,-369 809.04,-333.8822 834.5235,-309.8931"/>
<polygon fill="#000000" stroke="#000000" points="837.1159,-312.2595 841.9982,-302.8566 832.3178,-307.1626 837.1159,-312.2595"/>
</g>
<!-- Documentable::DocPage::Index::Language -->
<g id="node16" class="node">
<title>Documentable::DocPage::Index::Language</title>
<g id="a_node16"><a xlink:href="/type/Documentable::DocPage::Index::Language" xlink:title="Documentable::DocPage::Index::Language">
<ellipse fill="none" stroke="#000000" cx="206.0317" cy="-1596" rx="196.0654" ry="18"/>
<text text-anchor="middle" x="206.0317" y="-1592.3" font-family="FreeSans" font-size="14.00" fill="#000000">Documentable::DocPage::Index::Language</text>
</a>
</g>
</g>
<!-- Documentable::DocPage::Index::Language&#45;&gt;Documentable::DocPage -->
<g id="edge5" class="edge">
<title>Documentable::DocPage::Index::Language&#45;&gt;Documentable::DocPage</title>
<path fill="none" stroke="#000000" d="M318.6927,-1581.236C366.7928,-1574.9326 412.0634,-1569 412.0634,-1569 412.0634,-1569 534.0766,-1435.7842 586.4622,-1378.5887"/>
<polygon fill="#000000" stroke="#000000" points="589.1988,-1380.7829 593.372,-1371.0445 584.0367,-1376.0549 589.1988,-1380.7829"/>
</g>
<!-- Documentable::DocPage::Index::Programs -->
<g id="node17" class="node">
<title>Documentable::DocPage::Index::Programs</title>
<g id="a_node17"><a xlink:href="/type/Documentable::DocPage::Index::Programs" xlink:title="Documentable::DocPage::Index::Programs">
<ellipse fill="none" stroke="#000000" cx="206.0317" cy="-1542" rx="196.0654" ry="18"/>
<text text-anchor="middle" x="206.0317" y="-1538.3" font-family="FreeSans" font-size="14.00" fill="#000000">Documentable::DocPage::Index::Programs</text>
</a>
</g>
</g>
<!-- Documentable::DocPage::Index::Programs&#45;&gt;Documentable::DocPage -->
<g id="edge6" class="edge">
<title>Documentable::DocPage::Index::Programs&#45;&gt;Documentable::DocPage</title>
<path fill="none" stroke="#000000" d="M318.6927,-1527.236C366.7928,-1520.9326 412.0634,-1515 412.0634,-1515 412.0634,-1515 524.6106,-1422.8394 579.9277,-1377.5424"/>
<polygon fill="#000000" stroke="#000000" points="582.4517,-1379.9993 587.9713,-1370.9558 578.0168,-1374.5834 582.4517,-1379.9993"/>
</g>
<!-- Documentable::DocPage::Index::Routine -->
<g id="node18" class="node">
<title>Documentable::DocPage::Index::Routine</title>
<g id="a_node18"><a xlink:href="/type/Documentable::DocPage::Index::Routine" xlink:title="Documentable::DocPage::Index::Routine">
<ellipse fill="none" stroke="#000000" cx="206.0317" cy="-1488" rx="191.1661" ry="18"/>
<text text-anchor="middle" x="206.0317" y="-1484.3" font-family="FreeSans" font-size="14.00" fill="#000000">Documentable::DocPage::Index::Routine</text>
</a>
</g>
</g>
<!-- Documentable::DocPage::Index::Routine&#45;&gt;Documentable::DocPage -->
<g id="edge7" class="edge">
<title>Documentable::DocPage::Index::Routine&#45;&gt;Documentable::DocPage</title>
<path fill="none" stroke="#000000" d="M317.7905,-1473.3543C366.2251,-1467.007 412.0634,-1461 412.0634,-1461 412.0634,-1461 511.2891,-1406.832 569.196,-1375.2202"/>
<polygon fill="#000000" stroke="#000000" points="571.0131,-1378.2158 578.1134,-1370.3521 567.659,-1372.0717 571.0131,-1378.2158"/>
</g>
<!-- Documentable::DocPage::Index::Type -->
<g id="node19" class="node">
<title>Documentable::DocPage::Index::Type</title>
<g id="a_node19"><a xlink:href="/type/Documentable::DocPage::Index::Type" xlink:title="Documentable::DocPage::Index::Type">
<ellipse fill="none" stroke="#000000" cx="206.0317" cy="-1434" rx="176.5689" ry="18"/>
<text text-anchor="middle" x="206.0317" y="-1430.3" font-family="FreeSans" font-size="14.00" fill="#000000">Documentable::DocPage::Index::Type</text>
</a>
</g>
</g>
<!-- Documentable::DocPage::Index::Type&#45;&gt;Documentable::DocPage -->
<g id="edge8" class="edge">
<title>Documentable::DocPage::Index::Type&#45;&gt;Documentable::DocPage</title>
<path fill="none" stroke="#000000" d="M314.7792,-1419.7489C364.3074,-1413.2583 412.0634,-1407 412.0634,-1407 412.0634,-1407 485.5052,-1386.9538 542.8951,-1371.289"/>
<polygon fill="#000000" stroke="#000000" points="543.9514,-1374.6288 552.6768,-1368.619 542.1081,-1367.8758 543.9514,-1374.6288"/>
</g>
<!-- Documentable::DocPage::Primary::Language -->
<g id="node20" class="node">
<title>Documentable::DocPage::Primary::Language</title>
<g id="a_node20"><a xlink:href="/type/Documentable::DocPage::Primary::Language" xlink:title="Documentable::DocPage::Primary::Language">
<ellipse fill="none" stroke="#000000" cx="206.0317" cy="-1380" rx="206.0634" ry="18"/>
<text text-anchor="middle" x="206.0317" y="-1376.3" font-family="FreeSans" font-size="14.00" fill="#000000">Documentable::DocPage::Primary::Language</text>
</a>
</g>
</g>
<!-- Documentable::DocPage::Primary::Language&#45;&gt;Documentable::DocPage -->
<g id="edge9" class="edge">
<title>Documentable::DocPage::Primary::Language&#45;&gt;Documentable::DocPage</title>
<path fill="none" stroke="#000000" d="M369.7178,-1369.057C411.7682,-1366.2458 456.1154,-1363.281 495.1012,-1360.6747"/>
<polygon fill="#000000" stroke="#000000" points="495.6746,-1364.1442 505.4188,-1359.9849 495.2076,-1357.1598 495.6746,-1364.1442"/>
</g>
<!-- Documentable::DocPage::Primary::Programs -->
<g id="node21" class="node">
<title>Documentable::DocPage::Primary::Programs</title>
<g id="a_node21"><a xlink:href="/type/Documentable::DocPage::Primary::Programs" xlink:title="Documentable::DocPage::Primary::Programs">
<ellipse fill="none" stroke="#000000" cx="206.0317" cy="-1326" rx="206.0634" ry="18"/>
<text text-anchor="middle" x="206.0317" y="-1322.3" font-family="FreeSans" font-size="14.00" fill="#000000">Documentable::DocPage::Primary::Programs</text>
</a>
</g>
</g>
<!-- Documentable::DocPage::Primary::Programs&#45;&gt;Documentable::DocPage -->
<g id="edge10" class="edge">
<title>Documentable::DocPage::Primary::Programs&#45;&gt;Documentable::DocPage</title>
<path fill="none" stroke="#000000" d="M369.7178,-1336.943C411.7682,-1339.7542 456.1154,-1342.719 495.1012,-1345.3253"/>
<polygon fill="#000000" stroke="#000000" points="495.2076,-1348.8402 505.4188,-1346.0151 495.6746,-1341.8558 495.2076,-1348.8402"/>
</g>
<!-- Documentable::DocPage::Primary::Type -->
<g id="node22" class="node">
<title>Documentable::DocPage::Primary::Type</title>
<g id="a_node22"><a xlink:href="/type/Documentable::DocPage::Primary::Type" xlink:title="Documentable::DocPage::Primary::Type">
<ellipse fill="none" stroke="#000000" cx="206.0317" cy="-1272" rx="186.5669" ry="18"/>
<text text-anchor="middle" x="206.0317" y="-1268.3" font-family="FreeSans" font-size="14.00" fill="#000000">Documentable::DocPage::Primary::Type</text>
</a>
</g>
</g>
<!-- Documentable::DocPage::Primary::Type&#45;&gt;Documentable::DocPage -->
<g id="edge11" class="edge">
<title>Documentable::DocPage::Primary::Type&#45;&gt;Documentable::DocPage</title>
<path fill="none" stroke="#000000" d="M316.8877,-1286.5274C365.654,-1292.9181 412.0634,-1299 412.0634,-1299 412.0634,-1299 485.5052,-1319.0462 542.8951,-1334.711"/>
<polygon fill="#000000" stroke="#000000" points="542.1081,-1338.1242 552.6768,-1337.381 543.9514,-1331.3712 542.1081,-1338.1242"/>
</g>
<!-- Documentable::DocPage::Secondary -->
<g id="node23" class="node">
<title>Documentable::DocPage::Secondary</title>
<g id="a_node23"><a xlink:href="/type/Documentable::DocPage::Secondary" xlink:title="Documentable::DocPage::Secondary">
<ellipse fill="none" stroke="#000000" cx="206.0317" cy="-1218" rx="167.0704" ry="18"/>
<text text-anchor="middle" x="206.0317" y="-1214.3" font-family="FreeSans" font-size="14.00" fill="#000000">Documentable::DocPage::Secondary</text>
</a>
</g>
</g>
<!-- Documentable::DocPage::Secondary&#45;&gt;Documentable::DocPage -->
<g id="edge12" class="edge">
<title>Documentable::DocPage::Secondary&#45;&gt;Documentable::DocPage</title>
<path fill="none" stroke="#000000" d="M312.3669,-1231.935C362.745,-1238.5369 412.0634,-1245 412.0634,-1245 412.0634,-1245 511.2891,-1299.168 569.196,-1330.7798"/>
<polygon fill="#000000" stroke="#000000" points="567.659,-1333.9283 578.1134,-1335.6479 571.0131,-1327.7842 567.659,-1333.9283"/>
</g>
<!-- Documentable::DocPage::SubIndex::Routine -->
<g id="node24" class="node">
<title>Documentable::DocPage::SubIndex::Routine</title>
<g id="a_node24"><a xlink:href="/type/Documentable::DocPage::SubIndex::Routine" xlink:title="Documentable::DocPage::SubIndex::Routine">
<ellipse fill="none" stroke="#000000" cx="206.0317" cy="-1164" rx="206.0634" ry="18"/>
<text text-anchor="middle" x="206.0317" y="-1160.3" font-family="FreeSans" font-size="14.00" fill="#000000">Documentable::DocPage::SubIndex::Routine</text>
</a>
</g>
</g>
<!-- Documentable::DocPage::SubIndex::Routine&#45;&gt;Documentable::DocPage -->
<g id="edge13" class="edge">
<title>Documentable::DocPage::SubIndex::Routine&#45;&gt;Documentable::DocPage</title>
<path fill="none" stroke="#000000" d="M320.4951,-1179.0002C367.9175,-1185.2148 412.0634,-1191 412.0634,-1191 412.0634,-1191 524.6106,-1283.1606 579.9277,-1328.4576"/>
<polygon fill="#000000" stroke="#000000" points="578.0168,-1331.4166 587.9713,-1335.0442 582.4517,-1326.0007 578.0168,-1331.4166"/>
</g>
<!-- Documentable::DocPage::SubIndex::Type -->
<g id="node25" class="node">
<title>Documentable::DocPage::SubIndex::Type</title>
<g id="a_node25"><a xlink:href="/type/Documentable::DocPage::SubIndex::Type" xlink:title="Documentable::DocPage::SubIndex::Type">
<ellipse fill="none" stroke="#000000" cx="206.0317" cy="-1110" rx="191.1661" ry="18"/>
<text text-anchor="middle" x="206.0317" y="-1106.3" font-family="FreeSans" font-size="14.00" fill="#000000">Documentable::DocPage::SubIndex::Type</text>
</a>
</g>
</g>
<!-- Documentable::DocPage::SubIndex::Type&#45;&gt;Documentable::DocPage -->
<g id="edge14" class="edge">
<title>Documentable::DocPage::SubIndex::Type&#45;&gt;Documentable::DocPage</title>
<path fill="none" stroke="#000000" d="M317.7905,-1124.6457C366.2251,-1130.993 412.0634,-1137 412.0634,-1137 412.0634,-1137 534.0766,-1270.2158 586.4622,-1327.4113"/>
<polygon fill="#000000" stroke="#000000" points="584.0367,-1329.9451 593.372,-1334.9555 589.1988,-1325.2171 584.0367,-1329.9451"/>
</g>
<!-- Documentable::Heading::Actions -->
<g id="node26" class="node">
<title>Documentable::Heading::Actions</title>
<g id="a_node26"><a xlink:href="/type/Documentable::Heading::Actions" xlink:title="Documentable::Heading::Actions">
<ellipse fill="none" stroke="#000000" cx="609.8991" cy="-342" rx="157.0724" ry="18"/>
<text text-anchor="middle" x="609.8991" y="-338.3" font-family="FreeSans" font-size="14.00" fill="#000000">Documentable::Heading::Actions</text>
</a>
</g>
</g>
<!-- Documentable::Heading::Actions&#45;&gt;Any -->
<g id="edge15" class="edge">
<title>Documentable::Heading::Actions&#45;&gt;Any</title>
<path fill="none" stroke="#000000" d="M699.3371,-327.0785C736.7653,-320.8342 771.7347,-315 771.7347,-315 771.7347,-315 799.347,-306.3356 823.2877,-298.8233"/>
<polygon fill="#000000" stroke="#000000" points="824.3989,-302.143 832.8923,-295.8095 822.3031,-295.4641 824.3989,-302.143"/>
</g>
<!-- Documentable::Heading::Grammar -->
<g id="node27" class="node">
<title>Documentable::Heading::Grammar</title>
<g id="a_node27"><a xlink:href="/type/Documentable::Heading::Grammar" xlink:title="Documentable::Heading::Grammar">
<ellipse fill="none" stroke="#000000" cx="609.8991" cy="-288" rx="157.0724" ry="18"/>
<text text-anchor="middle" x="609.8991" y="-284.3" font-family="FreeSans" font-size="14.00" fill="#000000">Documentable::Heading::Grammar</text>
</a>
</g>
</g>
<!-- Documentable::Heading::Grammar&#45;&gt;Any -->
<g id="edge16" class="edge">
<title>Documentable::Heading::Grammar&#45;&gt;Any</title>
<path fill="none" stroke="#000000" d="M767.2373,-288C786.8144,-288 805.1901,-288 820.2038,-288"/>
<polygon fill="#000000" stroke="#000000" points="820.5111,-291.5001 830.5111,-288 820.511,-284.5001 820.5111,-291.5001"/>
</g>
<!-- Documentable::Index -->
<g id="node28" class="node">
<title>Documentable::Index</title>
<g id="a_node28"><a xlink:href="/type/Documentable::Index" xlink:title="Documentable::Index">
<ellipse fill="none" stroke="#000000" cx="206.0317" cy="-612" rx="103.1819" ry="18"/>
<text text-anchor="middle" x="206.0317" y="-608.3" font-family="FreeSans" font-size="14.00" fill="#000000">Documentable::Index</text>
</a>
</g>
</g>
<!-- Documentable::Index&#45;&gt;Documentable -->
<g id="edge17" class="edge">
<title>Documentable::Index&#45;&gt;Documentable</title>
<path fill="none" stroke="#000000" d="M288.6456,-601.1736C345.9652,-593.662 412.0634,-585 412.0634,-585 412.0634,-585 481.4828,-575.5259 538.0786,-567.8018"/>
<polygon fill="#000000" stroke="#000000" points="538.6816,-571.2521 548.1164,-566.4319 537.735,-564.3164 538.6816,-571.2521"/>
</g>
<!-- Documentable::Primary -->
<g id="node29" class="node">
<title>Documentable::Primary</title>
<g id="a_node29"><a xlink:href="/type/Documentable::Primary" xlink:title="Documentable::Primary">
<ellipse fill="none" stroke="#000000" cx="206.0317" cy="-558" rx="113.18" ry="18"/>
<text text-anchor="middle" x="206.0317" y="-554.3" font-family="FreeSans" font-size="14.00" fill="#000000">Documentable::Primary</text>
</a>
</g>
</g>
<!-- Documentable::Primary&#45;&gt;Documentable -->
<g id="edge18" class="edge">
<title>Documentable::Primary&#45;&gt;Documentable</title>
<path fill="none" stroke="#000000" d="M319.3371,-558C386.391,-558 469.71,-558 529.9113,-558"/>
<polygon fill="#000000" stroke="#000000" points="530.1198,-561.5001 540.1197,-558 530.1197,-554.5001 530.1198,-561.5001"/>
</g>
<!-- Documentable::Registry -->
<g id="node30" class="node">
<title>Documentable::Registry</title>
<g id="a_node30"><a xlink:href="/type/Documentable::Registry" xlink:title="Documentable::Registry">
<ellipse fill="none" stroke="#000000" cx="609.8991" cy="-234" rx="118.0794" ry="18"/>
<text text-anchor="middle" x="609.8991" y="-230.3" font-family="FreeSans" font-size="14.00" fill="#000000">Documentable::Registry</text>
</a>
</g>
</g>
<!-- Documentable::Registry&#45;&gt;Any -->
<g id="edge19" class="edge">
<title>Documentable::Registry&#45;&gt;Any</title>
<path fill="none" stroke="#000000" d="M689.8687,-247.3418C730.6412,-254.1441 771.7347,-261 771.7347,-261 771.7347,-261 799.347,-269.6644 823.2877,-277.1767"/>
<polygon fill="#000000" stroke="#000000" points="822.3031,-280.5359 832.8923,-280.1905 824.3989,-273.857 822.3031,-280.5359"/>
</g>
<!-- Documentable::Search -->
<g id="node31" class="node">
<title>Documentable::Search</title>
<g id="a_node31"><a xlink:href="/type/Documentable::Search" xlink:title="Documentable::Search">
<ellipse fill="none" stroke="#000000" cx="609.8991" cy="-180" rx="108.5808" ry="18"/>
<text text-anchor="middle" x="609.8991" y="-176.3" font-family="FreeSans" font-size="14.00" fill="#000000">Documentable::Search</text>
</a>
</g>
</g>
<!-- Documentable::Search&#45;&gt;Any -->
<g id="edge20" class="edge">
<title>Documentable::Search&#45;&gt;Any</title>
<path fill="none" stroke="#000000" d="M686.5515,-192.7884C728.381,-199.767 771.7347,-207 771.7347,-207 771.7347,-207 799.7347,-261 799.7347,-261 799.7347,-261 812.5421,-266.9574 826.1249,-273.2754"/>
<polygon fill="#000000" stroke="#000000" points="824.9611,-276.5942 835.5044,-277.6383 827.9134,-270.2472 824.9611,-276.5942"/>
</g>
<!-- Documentable::Secondary -->
<g id="node32" class="node">
<title>Documentable::Secondary</title>
<g id="a_node32"><a xlink:href="/type/Documentable::Secondary" xlink:title="Documentable::Secondary">
<ellipse fill="none" stroke="#000000" cx="206.0317" cy="-504" rx="122.6784" ry="18"/>
<text text-anchor="middle" x="206.0317" y="-500.3" font-family="FreeSans" font-size="14.00" fill="#000000">Documentable::Secondary</text>
</a>
</g>
</g>
<!-- Documentable::Secondary&#45;&gt;Documentable -->
<g id="edge21" class="edge">
<title>Documentable::Secondary&#45;&gt;Documentable</title>
<path fill="none" stroke="#000000" d="M297.6001,-515.9998C352.6261,-523.2109 412.0634,-531 412.0634,-531 412.0634,-531 481.4828,-540.4741 538.0786,-548.1982"/>
<polygon fill="#000000" stroke="#000000" points="537.735,-551.6836 548.1164,-549.5681 538.6816,-544.7479 537.735,-551.6836"/>
</g>
<!-- Documentable::To::HTML::Wrapper -->
<g id="node33" class="node">
<title>Documentable::To::HTML::Wrapper</title>
<g id="a_node33"><a xlink:href="/type/Documentable::To::HTML::Wrapper" xlink:title="Documentable::To::HTML::Wrapper">
<ellipse fill="none" stroke="#000000" cx="609.8991" cy="-126" rx="161.6714" ry="18"/>
<text text-anchor="middle" x="609.8991" y="-122.3" font-family="FreeSans" font-size="14.00" fill="#000000">Documentable::To::HTML::Wrapper</text>
</a>
</g>
</g>
<!-- Documentable::To::HTML::Wrapper&#45;&gt;Any -->
<g id="edge22" class="edge">
<title>Documentable::To::HTML::Wrapper&#45;&gt;Any</title>
<path fill="none" stroke="#000000" d="M699.8088,-141.0002C737.0586,-147.2148 771.7347,-153 771.7347,-153 771.7347,-153 799.7347,-261 799.7347,-261 799.7347,-261 812.5421,-266.9574 826.1249,-273.2754"/>
<polygon fill="#000000" stroke="#000000" points="824.9611,-276.5942 835.5044,-277.6383 827.9134,-270.2472 824.9611,-276.5942"/>
</g>
<!-- Exception -->
<g id="node34" class="node">
<title>Exception</title>
<g id="a_node34"><a xlink:href="/type/Exception" xlink:title="Exception">
<ellipse fill="none" stroke="#000000" cx="609.8991" cy="-72" rx="54.6905" ry="18"/>
<text text-anchor="middle" x="609.8991" y="-68.3" font-family="FreeSans" font-size="14.00" fill="#000000">Exception</text>
</a>
</g>
</g>
<!-- Exception&#45;&gt;Any -->
<g id="edge23" class="edge">
<title>Exception&#45;&gt;Any</title>
<path fill="none" stroke="#000000" d="M658.8943,-80.1742C706.5267,-88.121 771.7347,-99 771.7347,-99 771.7347,-99 799.7347,-261 799.7347,-261 799.7347,-261 812.5421,-266.9574 826.1249,-273.2754"/>
<polygon fill="#000000" stroke="#000000" points="824.9611,-276.5942 835.5044,-277.6383 827.9134,-270.2472 824.9611,-276.5942"/>
</g>
<!-- Kind -->
<g id="node35" class="node">
<title>Kind</title>
<g id="a_node35"><a xlink:href="/type/Kind" xlink:title="Kind">
<ellipse fill="none" stroke="#33bb33" cx="609.8991" cy="-18" rx="30.5947" ry="18"/>
<text text-anchor="middle" x="609.8991" y="-14.3" font-family="FreeSans" font-size="14.00" fill="#33bb33">Kind</text>
</a>
</g>
</g>
<!-- Kind&#45;&gt;Any -->
<g id="edge24" class="edge">
<title>Kind&#45;&gt;Any</title>
<path fill="none" stroke="#000000" d="M639.5822,-22.9522C686.3028,-30.7469 771.7347,-45 771.7347,-45 771.7347,-45 799.7347,-261 799.7347,-261 799.7347,-261 812.5421,-266.9574 826.1249,-273.2754"/>
<polygon fill="#000000" stroke="#000000" points="824.9611,-276.5942 835.5044,-277.6383 827.9134,-270.2472 824.9611,-276.5942"/>
</g>
</g>
</svg>
