<?xml version="1.0" encoding="UTF-8" standalone="no"?>
<!DOCTYPE svg PUBLIC "-//W3C//DTD SVG 1.1//EN"
 "http://www.w3.org/Graphics/SVG/1.1/DTD/svg11.dtd">
<!-- Generated by graphviz version 2.40.1 (0)
 -->
<!-- Title: perl6&#45;type&#45;graph Pages: 1 -->
<svg width="722pt" height="188pt"
 viewBox="0.00 0.00 722.43 188.00" xmlns="http://www.w3.org/2000/svg" xmlns:xlink="http://www.w3.org/1999/xlink">
<g id="graph0" class="graph" transform="scale(1 1) rotate(0) translate(4 184)">
<title>perl6&#45;type&#45;graph</title>
<polygon fill="#ffffff" stroke="transparent" points="-4,4 -4,-184 718.4308,-184 718.4308,4 -4,4"/>
<!-- Documentable -->
<g id="node1" class="node">
<title>Documentable</title>
<g id="a_node1"><a xlink:href="/type/Documentable" xlink:title="Documentable">
<ellipse fill="none" stroke="#000000" cx="367.09" cy="-90" rx="69.5877" ry="18"/>
<text text-anchor="middle" x="367.09" y="-86.3" font-family="FreeSans" font-size="14.00" fill="#000000">Documentable</text>
</a>
</g>
</g>
<!-- Any -->
<g id="node2" class="node">
<title>Any</title>
<g id="a_node2"><a xlink:href="/type/Any" xlink:title="Any">
<ellipse fill="none" stroke="#000000" cx="367.09" cy="-162" rx="27" ry="18"/>
<text text-anchor="middle" x="367.09" y="-158.3" font-family="FreeSans" font-size="14.00" fill="#000000">Any</text>
</a>
</g>
</g>
<!-- Documentable&#45;&gt;Any -->
<g id="edge1" class="edge">
<title>Documentable&#45;&gt;Any</title>
<path fill="none" stroke="#000000" d="M367.09,-108.1686C367.09,-115.869 367.09,-125.0257 367.09,-133.5834"/>
<polygon fill="#000000" stroke="#000000" points="363.5901,-133.5867 367.09,-143.5867 370.5901,-133.5868 363.5901,-133.5867"/>
</g>
<!-- Documentable::Primary -->
<g id="node3" class="node">
<title>Documentable::Primary</title>
<g id="a_node3"><a xlink:href="/type/Documentable::Primary" xlink:title="Documentable::Primary">
<ellipse fill="none" stroke="#000000" cx="113.09" cy="-18" rx="113.18" ry="18"/>
<text text-anchor="middle" x="113.09" y="-14.3" font-family="FreeSans" font-size="14.00" fill="#000000">Documentable::Primary</text>
</a>
</g>
</g>
<!-- Documentable::Primary&#45;&gt;Documentable -->
<g id="edge2" class="edge">
<title>Documentable::Primary&#45;&gt;Documentable</title>
<path fill="none" stroke="#000000" d="M168.5175,-33.7117C210.4098,-45.5867 267.7288,-61.8346 310.0178,-73.8221"/>
<polygon fill="#000000" stroke="#000000" points="309.3076,-77.2586 319.8831,-76.6185 311.2167,-70.5239 309.3076,-77.2586"/>
</g>
<!-- Documentable::Secondary -->
<g id="node4" class="node">
<title>Documentable::Secondary</title>
<g id="a_node4"><a xlink:href="/type/Documentable::Secondary" xlink:title="Documentable::Secondary">
<ellipse fill="none" stroke="#000000" cx="367.09" cy="-18" rx="122.6784" ry="18"/>
<text text-anchor="middle" x="367.09" y="-14.3" font-family="FreeSans" font-size="14.00" fill="#000000">Documentable::Secondary</text>
</a>
</g>
</g>
<!-- Documentable::Secondary&#45;&gt;Documentable -->
<g id="edge3" class="edge">
<title>Documentable::Secondary&#45;&gt;Documentable</title>
<path fill="none" stroke="#000000" d="M367.09,-36.1686C367.09,-43.869 367.09,-53.0257 367.09,-61.5834"/>
<polygon fill="#000000" stroke="#000000" points="363.5901,-61.5867 367.09,-71.5867 370.5901,-61.5868 363.5901,-61.5867"/>
</g>
<!-- Documentable::Index -->
<g id="node5" class="node">
<title>Documentable::Index</title>
<g id="a_node5"><a xlink:href="/type/Documentable::Index" xlink:title="Documentable::Index">
<ellipse fill="none" stroke="#000000" cx="611.09" cy="-18" rx="103.1819" ry="18"/>
<text text-anchor="middle" x="611.09" y="-14.3" font-family="FreeSans" font-size="14.00" fill="#000000">Documentable::Index</text>
</a>
</g>
</g>
<!-- Documentable::Index&#45;&gt;Documentable -->
<g id="edge4" class="edge">
<title>Documentable::Index&#45;&gt;Documentable</title>
<path fill="none" stroke="#000000" d="M558.446,-33.5343C518.4537,-45.3353 463.5722,-61.5298 422.8361,-73.5503"/>
<polygon fill="#000000" stroke="#000000" points="421.6651,-70.2466 413.0646,-76.4337 423.6463,-76.9604 421.6651,-70.2466"/>
</g>
</g>
</svg>
