<?xml version="1.0" encoding="UTF-8" standalone="no"?>
<!DOCTYPE svg PUBLIC "-//W3C//DTD SVG 1.1//EN"
 "http://www.w3.org/Graphics/SVG/1.1/DTD/svg11.dtd">
<!-- Generated by graphviz version 2.40.1 (0)
 -->
<!-- Title: perl6&#45;type&#45;graph Pages: 1 -->
<svg width="722pt" height="188pt"
 viewBox="0.00 0.00 721.93 188.00" xmlns="http://www.w3.org/2000/svg" xmlns:xlink="http://www.w3.org/1999/xlink">
<g id="graph0" class="graph" transform="scale(1 1) rotate(0) translate(4 184)">
<title>perl6&#45;type&#45;graph</title>
<polygon fill="#ffffff" stroke="transparent" points="-4,4 -4,-184 717.9291,-184 717.9291,4 -4,4"/>
<!-- Documentable -->
<g id="node1" class="node">
<title>Documentable</title>
<g id="a_node1"><a xlink:href="/type/Documentable" xlink:title="Documentable">
<ellipse fill="none" stroke="#000000" cx="366.8391" cy="-90" rx="69.5877" ry="18"/>
<text text-anchor="middle" x="366.8391" y="-86.3" font-family="FreeSans" font-size="14.00" fill="#000000">Documentable</text>
</a>
</g>
</g>
<!-- Any -->
<g id="node2" class="node">
<title>Any</title>
<g id="a_node2"><a xlink:href="/type/Any" xlink:title="Any">
<ellipse fill="none" stroke="#000000" cx="366.8391" cy="-162" rx="27" ry="18"/>
<text text-anchor="middle" x="366.8391" y="-158.3" font-family="FreeSans" font-size="14.00" fill="#000000">Any</text>
</a>
</g>
</g>
<!-- Documentable&#45;&gt;Any -->
<g id="edge1" class="edge">
<title>Documentable&#45;&gt;Any</title>
<path fill="none" stroke="#000000" d="M366.8391,-108.1686C366.8391,-115.869 366.8391,-125.0257 366.8391,-133.5834"/>
<polygon fill="#000000" stroke="#000000" points="363.3392,-133.5867 366.8391,-143.5867 370.3392,-133.5868 363.3392,-133.5867"/>
</g>
<!-- Documentable::Secondary -->
<g id="node3" class="node">
<title>Documentable::Secondary</title>
<g id="a_node3"><a xlink:href="/type/Documentable::Secondary" xlink:title="Documentable::Secondary">
<ellipse fill="none" stroke="#000000" cx="122.8391" cy="-18" rx="122.6784" ry="18"/>
<text text-anchor="middle" x="122.8391" y="-14.3" font-family="FreeSans" font-size="14.00" fill="#000000">Documentable::Secondary</text>
</a>
</g>
</g>
<!-- Documentable::Secondary&#45;&gt;Documentable -->
<g id="edge2" class="edge">
<title>Documentable::Secondary&#45;&gt;Documentable</title>
<path fill="none" stroke="#000000" d="M177.5975,-34.1582C217.4472,-45.9172 271.2164,-61.7835 311.2564,-73.5985"/>
<polygon fill="#000000" stroke="#000000" points="310.2833,-76.9605 320.8651,-76.4339 312.2645,-70.2467 310.2833,-76.9605"/>
</g>
<!-- Documentable::Index -->
<g id="node4" class="node">
<title>Documentable::Index</title>
<g id="a_node4"><a xlink:href="/type/Documentable::Index" xlink:title="Documentable::Index">
<ellipse fill="none" stroke="#000000" cx="366.8391" cy="-18" rx="103.1819" ry="18"/>
<text text-anchor="middle" x="366.8391" y="-14.3" font-family="FreeSans" font-size="14.00" fill="#000000">Documentable::Index</text>
</a>
</g>
</g>
<!-- Documentable::Index&#45;&gt;Documentable -->
<g id="edge3" class="edge">
<title>Documentable::Index&#45;&gt;Documentable</title>
<path fill="none" stroke="#000000" d="M366.8391,-36.1686C366.8391,-43.869 366.8391,-53.0257 366.8391,-61.5834"/>
<polygon fill="#000000" stroke="#000000" points="363.3392,-61.5867 366.8391,-71.5867 370.3392,-61.5868 363.3392,-61.5867"/>
</g>
<!-- Documentable::Primary -->
<g id="node5" class="node">
<title>Documentable::Primary</title>
<g id="a_node5"><a xlink:href="/type/Documentable::Primary" xlink:title="Documentable::Primary">
<ellipse fill="none" stroke="#000000" cx="600.8391" cy="-18" rx="113.18" ry="18"/>
<text text-anchor="middle" x="600.8391" y="-14.3" font-family="FreeSans" font-size="14.00" fill="#000000">Documentable::Primary</text>
</a>
</g>
</g>
<!-- Documentable::Primary&#45;&gt;Documentable -->
<g id="edge4" class="edge">
<title>Documentable::Primary&#45;&gt;Documentable</title>
<path fill="none" stroke="#000000" d="M548.6162,-34.0686C510.9035,-45.6725 460.0793,-61.3107 421.7605,-73.1011"/>
<polygon fill="#000000" stroke="#000000" points="420.3342,-69.878 411.8057,-76.1641 422.3928,-76.5684 420.3342,-69.878"/>
</g>
</g>
</svg>
