<?xml version="1.0" encoding="UTF-8" standalone="no"?>
<!DOCTYPE svg PUBLIC "-//W3C//DTD SVG 1.1//EN"
 "http://www.w3.org/Graphics/SVG/1.1/DTD/svg11.dtd">
<!-- Generated by graphviz version 2.40.1 (0)
 -->
<!-- Title: perl6&#45;type&#45;graph Pages: 1 -->
<svg width="4016pt" height="116pt"
 viewBox="0.00 0.00 4016.31 116.00" xmlns="http://www.w3.org/2000/svg" xmlns:xlink="http://www.w3.org/1999/xlink">
<g id="graph0" class="graph" transform="scale(1 1) rotate(0) translate(4 112)">
<title>perl6&#45;type&#45;graph</title>
<polygon fill="#ffffff" stroke="transparent" points="-4,4 -4,-112 4012.3143,-112 4012.3143,4 -4,4"/>
<!-- Documentable::DocPage -->
<g id="node1" class="node">
<title>Documentable::DocPage</title>
<g id="a_node1"><a xlink:href="/type/Documentable::DocPage" xlink:title="Documentable::DocPage">
<ellipse fill="none" stroke="#6666ff" cx="1940.2826" cy="-90" rx="113.18" ry="18"/>
<text text-anchor="middle" x="1940.2826" y="-86.3" font-family="FreeSans" font-size="14.00" fill="#6666ff">Documentable::DocPage</text>
</a>
</g>
</g>
<!-- Documentable::DocPage::Index::Programs -->
<g id="node2" class="node">
<title>Documentable::DocPage::Index::Programs</title>
<g id="a_node2"><a xlink:href="/type/Documentable::DocPage::Index::Programs" xlink:title="Documentable::DocPage::Index::Programs">
<ellipse fill="none" stroke="#000000" cx="196.2826" cy="-18" rx="196.0654" ry="18"/>
<text text-anchor="middle" x="196.2826" y="-14.3" font-family="FreeSans" font-size="14.00" fill="#000000">Documentable::DocPage::Index::Programs</text>
</a>
</g>
</g>
<!-- Documentable::DocPage::Index::Programs&#45;&gt;Documentable::DocPage -->
<g id="edge1" class="edge">
<title>Documentable::DocPage::Index::Programs&#45;&gt;Documentable::DocPage</title>
<path fill="none" stroke="#000000" d="M338.1031,-30.4525C373.3483,-33.5472 401.2826,-36 401.2826,-36 401.2826,-36 1456.8608,-73.0378 1819.595,-85.7653"/>
<polygon fill="#000000" stroke="#000000" points="1819.4849,-89.2635 1829.6015,-86.1165 1819.7304,-82.2678 1819.4849,-89.2635"/>
</g>
<!-- Documentable::DocPage::Secondary -->
<g id="node3" class="node">
<title>Documentable::DocPage::Secondary</title>
<g id="a_node3"><a xlink:href="/type/Documentable::DocPage::Secondary" xlink:title="Documentable::DocPage::Secondary">
<ellipse fill="none" stroke="#000000" cx="577.2826" cy="-18" rx="167.0704" ry="18"/>
<text text-anchor="middle" x="577.2826" y="-14.3" font-family="FreeSans" font-size="14.00" fill="#000000">Documentable::DocPage::Secondary</text>
</a>
</g>
</g>
<!-- Documentable::DocPage::Secondary&#45;&gt;Documentable::DocPage -->
<g id="edge2" class="edge">
<title>Documentable::DocPage::Secondary&#45;&gt;Documentable::DocPage</title>
<path fill="none" stroke="#000000" d="M698.5598,-30.4034C729.0455,-33.5212 753.2826,-36 753.2826,-36 753.2826,-36 1520.7682,-70.9151 1821.4699,-84.5949"/>
<polygon fill="#000000" stroke="#000000" points="1821.3848,-88.0945 1831.5336,-85.0527 1821.703,-81.1018 1821.3848,-88.0945"/>
</g>
<!-- Documentable::DocPage::SubIndex::Type -->
<g id="node4" class="node">
<title>Documentable::DocPage::SubIndex::Type</title>
<g id="a_node4"><a xlink:href="/type/Documentable::DocPage::SubIndex::Type" xlink:title="Documentable::DocPage::SubIndex::Type">
<ellipse fill="none" stroke="#000000" cx="953.2826" cy="-18" rx="191.1661" ry="18"/>
<text text-anchor="middle" x="953.2826" y="-14.3" font-family="FreeSans" font-size="14.00" fill="#000000">Documentable::DocPage::SubIndex::Type</text>
</a>
</g>
</g>
<!-- Documentable::DocPage::SubIndex::Type&#45;&gt;Documentable::DocPage -->
<g id="edge3" class="edge">
<title>Documentable::DocPage::SubIndex::Type&#45;&gt;Documentable::DocPage</title>
<path fill="none" stroke="#000000" d="M1091.6441,-30.4525C1126.0296,-33.5472 1153.2826,-36 1153.2826,-36 1153.2826,-36 1607.7468,-67.1831 1825.9709,-82.1565"/>
<polygon fill="#000000" stroke="#000000" points="1825.9651,-85.6642 1836.1812,-82.8571 1826.4443,-78.6807 1825.9651,-85.6642"/>
</g>
<!-- Documentable::DocPage::Index::Type -->
<g id="node5" class="node">
<title>Documentable::DocPage::Index::Type</title>
<g id="a_node5"><a xlink:href="/type/Documentable::DocPage::Index::Type" xlink:title="Documentable::DocPage::Index::Type">
<ellipse fill="none" stroke="#000000" cx="1339.2826" cy="-18" rx="176.5689" ry="18"/>
<text text-anchor="middle" x="1339.2826" y="-14.3" font-family="FreeSans" font-size="14.00" fill="#000000">Documentable::DocPage::Index::Type</text>
</a>
</g>
</g>
<!-- Documentable::DocPage::Index::Type&#45;&gt;Documentable::DocPage -->
<g id="edge4" class="edge">
<title>Documentable::DocPage::Index::Type&#45;&gt;Documentable::DocPage</title>
<path fill="none" stroke="#000000" d="M1454.0953,-31.7546C1565.6562,-45.1196 1733.3725,-65.2121 1839.7907,-77.961"/>
<polygon fill="#000000" stroke="#000000" points="1839.5486,-81.457 1849.894,-79.1714 1840.3813,-74.5067 1839.5486,-81.457"/>
</g>
<!-- Documentable::DocPage::Index::Language -->
<g id="node6" class="node">
<title>Documentable::DocPage::Index::Language</title>
<g id="a_node6"><a xlink:href="/type/Documentable::DocPage::Index::Language" xlink:title="Documentable::DocPage::Index::Language">
<ellipse fill="none" stroke="#000000" cx="1730.2826" cy="-18" rx="196.0654" ry="18"/>
<text text-anchor="middle" x="1730.2826" y="-14.3" font-family="FreeSans" font-size="14.00" fill="#000000">Documentable::DocPage::Index::Language</text>
</a>
</g>
</g>
<!-- Documentable::DocPage::Index::Language&#45;&gt;Documentable::DocPage -->
<g id="edge5" class="edge">
<title>Documentable::DocPage::Index::Language&#45;&gt;Documentable::DocPage</title>
<path fill="none" stroke="#000000" d="M1781.1177,-35.4292C1811.8096,-45.9521 1851.0041,-59.3902 1882.8185,-70.298"/>
<polygon fill="#000000" stroke="#000000" points="1881.8428,-73.6634 1892.4374,-73.5959 1884.1131,-67.0418 1881.8428,-73.6634"/>
</g>
<!-- Documentable::DocPage::Primary::Language -->
<g id="node7" class="node">
<title>Documentable::DocPage::Primary::Language</title>
<g id="a_node7"><a xlink:href="/type/Documentable::DocPage::Primary::Language" xlink:title="Documentable::DocPage::Primary::Language">
<ellipse fill="none" stroke="#000000" cx="2150.2826" cy="-18" rx="206.0634" ry="18"/>
<text text-anchor="middle" x="2150.2826" y="-14.3" font-family="FreeSans" font-size="14.00" fill="#000000">Documentable::DocPage::Primary::Language</text>
</a>
</g>
</g>
<!-- Documentable::DocPage::Primary::Language&#45;&gt;Documentable::DocPage -->
<g id="edge6" class="edge">
<title>Documentable::DocPage::Primary::Language&#45;&gt;Documentable::DocPage</title>
<path fill="none" stroke="#000000" d="M2099.1793,-35.5211C2068.4822,-46.0458 2029.3531,-59.4615 1997.6062,-70.3462"/>
<polygon fill="#000000" stroke="#000000" points="1996.3325,-67.0828 1988.0082,-73.6369 1998.6028,-73.7044 1996.3325,-67.0828"/>
</g>
<!-- Documentable::DocPage::Primary::Programs -->
<g id="node8" class="node">
<title>Documentable::DocPage::Primary::Programs</title>
<g id="a_node8"><a xlink:href="/type/Documentable::DocPage::Primary::Programs" xlink:title="Documentable::DocPage::Primary::Programs">
<ellipse fill="none" stroke="#000000" cx="2580.2826" cy="-18" rx="206.0634" ry="18"/>
<text text-anchor="middle" x="2580.2826" y="-14.3" font-family="FreeSans" font-size="14.00" fill="#000000">Documentable::DocPage::Primary::Programs</text>
</a>
</g>
</g>
<!-- Documentable::DocPage::Primary::Programs&#45;&gt;Documentable::DocPage -->
<g id="edge7" class="edge">
<title>Documentable::DocPage::Primary::Programs&#45;&gt;Documentable::DocPage</title>
<path fill="none" stroke="#000000" d="M2453.8392,-32.2249C2333.5542,-45.7569 2154.8241,-65.8641 2043.0591,-78.4376"/>
<polygon fill="#000000" stroke="#000000" points="2042.3373,-74.9967 2032.7913,-79.5928 2043.1199,-81.9528 2042.3373,-74.9967"/>
</g>
<!-- Documentable::DocPage::Index::Routine -->
<g id="node9" class="node">
<title>Documentable::DocPage::Index::Routine</title>
<g id="a_node9"><a xlink:href="/type/Documentable::DocPage::Index::Routine" xlink:title="Documentable::DocPage::Index::Routine">
<ellipse fill="none" stroke="#000000" cx="2995.2826" cy="-18" rx="191.1661" ry="18"/>
<text text-anchor="middle" x="2995.2826" y="-14.3" font-family="FreeSans" font-size="14.00" fill="#000000">Documentable::DocPage::Index::Routine</text>
</a>
</g>
</g>
<!-- Documentable::DocPage::Index::Routine&#45;&gt;Documentable::DocPage -->
<g id="edge8" class="edge">
<title>Documentable::DocPage::Index::Routine&#45;&gt;Documentable::DocPage</title>
<path fill="none" stroke="#000000" d="M2856.9211,-30.4525C2822.5355,-33.5472 2795.2826,-36 2795.2826,-36 2795.2826,-36 2289.2418,-67.9605 2055.7796,-82.7055"/>
<polygon fill="#000000" stroke="#000000" points="2055.3103,-79.228 2045.5508,-83.3515 2055.7516,-86.2141 2055.3103,-79.228"/>
</g>
<!-- Documentable::DocPage::Primary::Type -->
<g id="node10" class="node">
<title>Documentable::DocPage::Primary::Type</title>
<g id="a_node10"><a xlink:href="/type/Documentable::DocPage::Primary::Type" xlink:title="Documentable::DocPage::Primary::Type">
<ellipse fill="none" stroke="#000000" cx="3391.2826" cy="-18" rx="186.5669" ry="18"/>
<text text-anchor="middle" x="3391.2826" y="-14.3" font-family="FreeSans" font-size="14.00" fill="#000000">Documentable::DocPage::Primary::Type</text>
</a>
</g>
</g>
<!-- Documentable::DocPage::Primary::Type&#45;&gt;Documentable::DocPage -->
<g id="edge9" class="edge">
<title>Documentable::DocPage::Primary::Type&#45;&gt;Documentable::DocPage</title>
<path fill="none" stroke="#000000" d="M3255.9559,-30.428C3222.132,-33.5342 3195.2826,-36 3195.2826,-36 3195.2826,-36 2372.7543,-71.3917 2059.4836,-84.871"/>
<polygon fill="#000000" stroke="#000000" points="2059.3004,-81.3756 2049.4602,-85.3023 2059.6014,-88.3691 2059.3004,-81.3756"/>
</g>
<!-- Documentable::DocPage::SubIndex::Routine -->
<g id="node11" class="node">
<title>Documentable::DocPage::SubIndex::Routine</title>
<g id="a_node11"><a xlink:href="/type/Documentable::DocPage::SubIndex::Routine" xlink:title="Documentable::DocPage::SubIndex::Routine">
<ellipse fill="none" stroke="#000000" cx="3802.2826" cy="-18" rx="206.0634" ry="18"/>
<text text-anchor="middle" x="3802.2826" y="-14.3" font-family="FreeSans" font-size="14.00" fill="#000000">Documentable::DocPage::SubIndex::Routine</text>
</a>
</g>
</g>
<!-- Documentable::DocPage::SubIndex::Routine&#45;&gt;Documentable::DocPage -->
<g id="edge10" class="edge">
<title>Documentable::DocPage::SubIndex::Routine&#45;&gt;Documentable::DocPage</title>
<path fill="none" stroke="#000000" d="M3653.2508,-30.4771C3616.4247,-33.5602 3587.2826,-36 3587.2826,-36 3587.2826,-36 2441.837,-73.5556 2061.4363,-86.0277"/>
<polygon fill="#000000" stroke="#000000" points="2061.1057,-82.5366 2051.2258,-86.3625 2061.3352,-89.5328 2061.1057,-82.5366"/>
</g>
</g>
</svg>
