<?xml version="1.0" encoding="UTF-8" standalone="no"?>
<!DOCTYPE svg PUBLIC "-//W3C//DTD SVG 1.1//EN"
 "http://www.w3.org/Graphics/SVG/1.1/DTD/svg11.dtd">
<!-- Generated by graphviz version 2.40.1 (0)
 -->
<!-- Title: perl6&#45;type&#45;graph Pages: 1 -->
<svg width="722pt" height="188pt"
 viewBox="0.00 0.00 722.18 188.00" xmlns="http://www.w3.org/2000/svg" xmlns:xlink="http://www.w3.org/1999/xlink">
<g id="graph0" class="graph" transform="scale(1 1) rotate(0) translate(4 184)">
<title>perl6&#45;type&#45;graph</title>
<polygon fill="#ffffff" stroke="transparent" points="-4,4 -4,-184 718.1799,-184 718.1799,4 -4,4"/>
<!-- Documentable -->
<g id="node1" class="node">
<title>Documentable</title>
<g id="a_node1"><a xlink:href="/type/Documentable" xlink:title="Documentable">
<ellipse fill="none" stroke="#000000" cx="337.3408" cy="-90" rx="69.5877" ry="18"/>
<text text-anchor="middle" x="337.3408" y="-86.3" font-family="FreeSans" font-size="14.00" fill="#000000">Documentable</text>
</a>
</g>
</g>
<!-- Any -->
<g id="node2" class="node">
<title>Any</title>
<g id="a_node2"><a xlink:href="/type/Any" xlink:title="Any">
<ellipse fill="none" stroke="#000000" cx="337.3408" cy="-162" rx="27" ry="18"/>
<text text-anchor="middle" x="337.3408" y="-158.3" font-family="FreeSans" font-size="14.00" fill="#000000">Any</text>
</a>
</g>
</g>
<!-- Documentable&#45;&gt;Any -->
<g id="edge1" class="edge">
<title>Documentable&#45;&gt;Any</title>
<path fill="none" stroke="#000000" d="M337.3408,-108.1686C337.3408,-115.869 337.3408,-125.0257 337.3408,-133.5834"/>
<polygon fill="#000000" stroke="#000000" points="333.8409,-133.5867 337.3408,-143.5867 340.8409,-133.5868 333.8409,-133.5867"/>
</g>
<!-- Documentable::Index -->
<g id="node3" class="node">
<title>Documentable::Index</title>
<g id="a_node3"><a xlink:href="/type/Documentable::Index" xlink:title="Documentable::Index">
<ellipse fill="none" stroke="#000000" cx="103.3408" cy="-18" rx="103.1819" ry="18"/>
<text text-anchor="middle" x="103.3408" y="-14.3" font-family="FreeSans" font-size="14.00" fill="#000000">Documentable::Index</text>
</a>
</g>
</g>
<!-- Documentable::Index&#45;&gt;Documentable -->
<g id="edge2" class="edge">
<title>Documentable::Index&#45;&gt;Documentable</title>
<path fill="none" stroke="#000000" d="M154.404,-33.7117C192.1782,-45.3346 243.5673,-61.1466 282.2624,-73.0528"/>
<polygon fill="#000000" stroke="#000000" points="281.726,-76.5496 292.3131,-76.1453 283.7846,-69.8592 281.726,-76.5496"/>
</g>
<!-- Documentable::Primary -->
<g id="node4" class="node">
<title>Documentable::Primary</title>
<g id="a_node4"><a xlink:href="/type/Documentable::Primary" xlink:title="Documentable::Primary">
<ellipse fill="none" stroke="#000000" cx="337.3408" cy="-18" rx="113.18" ry="18"/>
<text text-anchor="middle" x="337.3408" y="-14.3" font-family="FreeSans" font-size="14.00" fill="#000000">Documentable::Primary</text>
</a>
</g>
</g>
<!-- Documentable::Primary&#45;&gt;Documentable -->
<g id="edge3" class="edge">
<title>Documentable::Primary&#45;&gt;Documentable</title>
<path fill="none" stroke="#000000" d="M337.3408,-36.1686C337.3408,-43.869 337.3408,-53.0257 337.3408,-61.5834"/>
<polygon fill="#000000" stroke="#000000" points="333.8409,-61.5867 337.3408,-71.5867 340.8409,-61.5868 333.8409,-61.5867"/>
</g>
<!-- Documentable::Secondary -->
<g id="node5" class="node">
<title>Documentable::Secondary</title>
<g id="a_node5"><a xlink:href="/type/Documentable::Secondary" xlink:title="Documentable::Secondary">
<ellipse fill="none" stroke="#000000" cx="591.3408" cy="-18" rx="122.6784" ry="18"/>
<text text-anchor="middle" x="591.3408" y="-14.3" font-family="FreeSans" font-size="14.00" fill="#000000">Documentable::Secondary</text>
</a>
</g>
</g>
<!-- Documentable::Secondary&#45;&gt;Documentable -->
<g id="edge4" class="edge">
<title>Documentable::Secondary&#45;&gt;Documentable</title>
<path fill="none" stroke="#000000" d="M534.6544,-34.0686C492.8286,-45.9247 436.1452,-61.9925 394.2635,-73.8644"/>
<polygon fill="#000000" stroke="#000000" points="393.1578,-70.5399 384.4914,-76.6345 395.0669,-77.2745 393.1578,-70.5399"/>
</g>
</g>
</svg>
