<?xml version="1.0" encoding="UTF-8" standalone="no"?>
<!DOCTYPE svg PUBLIC "-//W3C//DTD SVG 1.1//EN"
 "http://www.w3.org/Graphics/SVG/1.1/DTD/svg11.dtd">
<!-- Generated by graphviz version 2.40.1 (0)
 -->
<!-- Title: perl6&#45;type&#45;graph Pages: 1 -->
<svg width="4016pt" height="116pt"
 viewBox="0.00 0.00 4015.87 116.00" xmlns="http://www.w3.org/2000/svg" xmlns:xlink="http://www.w3.org/1999/xlink">
<g id="graph0" class="graph" transform="scale(1 1) rotate(0) translate(4 112)">
<title>perl6&#45;type&#45;graph</title>
<polygon fill="#ffffff" stroke="transparent" points="-4,4 -4,-112 4011.8674,-112 4011.8674,4 -4,4"/>
<!-- Documentable::DocPage -->
<g id="node1" class="node">
<title>Documentable::DocPage</title>
<g id="a_node1"><a xlink:href="/type/Documentable::DocPage" xlink:title="Documentable::DocPage">
<ellipse fill="none" stroke="#6666ff" cx="2045.083" cy="-90" rx="113.18" ry="18"/>
<text text-anchor="middle" x="2045.083" y="-86.3" font-family="FreeSans" font-size="14.00" fill="#6666ff">Documentable::DocPage</text>
</a>
</g>
</g>
<!-- Documentable::DocPage::Index::Routine -->
<g id="node2" class="node">
<title>Documentable::DocPage::Index::Routine</title>
<g id="a_node2"><a xlink:href="/type/Documentable::DocPage::Index::Routine" xlink:title="Documentable::DocPage::Index::Routine">
<ellipse fill="none" stroke="#000000" cx="191.083" cy="-18" rx="191.1661" ry="18"/>
<text text-anchor="middle" x="191.083" y="-14.3" font-family="FreeSans" font-size="14.00" fill="#000000">Documentable::DocPage::Index::Routine</text>
</a>
</g>
</g>
<!-- Documentable::DocPage::Index::Routine&#45;&gt;Documentable::DocPage -->
<g id="edge1" class="edge">
<title>Documentable::DocPage::Index::Routine&#45;&gt;Documentable::DocPage</title>
<path fill="none" stroke="#000000" d="M329.4445,-30.4525C363.8301,-33.5472 391.083,-36 391.083,-36 391.083,-36 1542.0645,-73.5774 1923.7466,-86.0386"/>
<polygon fill="#000000" stroke="#000000" points="1923.8822,-89.5448 1933.9911,-86.3731 1924.1107,-82.5485 1923.8822,-89.5448"/>
</g>
<!-- Documentable::DocPage::Primary::Type -->
<g id="node3" class="node">
<title>Documentable::DocPage::Primary::Type</title>
<g id="a_node3"><a xlink:href="/type/Documentable::DocPage::Primary::Type" xlink:title="Documentable::DocPage::Primary::Type">
<ellipse fill="none" stroke="#000000" cx="587.083" cy="-18" rx="186.5669" ry="18"/>
<text text-anchor="middle" x="587.083" y="-14.3" font-family="FreeSans" font-size="14.00" fill="#000000">Documentable::DocPage::Primary::Type</text>
</a>
</g>
</g>
<!-- Documentable::DocPage::Primary::Type&#45;&gt;Documentable::DocPage -->
<g id="edge2" class="edge">
<title>Documentable::DocPage::Primary::Type&#45;&gt;Documentable::DocPage</title>
<path fill="none" stroke="#000000" d="M722.4097,-30.428C756.2336,-33.5342 783.083,-36 783.083,-36 783.083,-36 1611.1864,-71.4339 1925.7805,-84.8951"/>
<polygon fill="#000000" stroke="#000000" points="1925.705,-88.395 1935.8455,-85.3258 1926.0043,-81.4014 1925.705,-88.395"/>
</g>
<!-- Documentable::DocPage::Index::Language -->
<g id="node4" class="node">
<title>Documentable::DocPage::Index::Language</title>
<g id="a_node4"><a xlink:href="/type/Documentable::DocPage::Index::Language" xlink:title="Documentable::DocPage::Index::Language">
<ellipse fill="none" stroke="#000000" cx="988.083" cy="-18" rx="196.0654" ry="18"/>
<text text-anchor="middle" x="988.083" y="-14.3" font-family="FreeSans" font-size="14.00" fill="#000000">Documentable::DocPage::Index::Language</text>
</a>
</g>
</g>
<!-- Documentable::DocPage::Index::Language&#45;&gt;Documentable::DocPage -->
<g id="edge3" class="edge">
<title>Documentable::DocPage::Index::Language&#45;&gt;Documentable::DocPage</title>
<path fill="none" stroke="#000000" d="M1129.9036,-30.4525C1165.1488,-33.5472 1193.083,-36 1193.083,-36 1193.083,-36 1696.7178,-67.9205 1929.5545,-82.6778"/>
<polygon fill="#000000" stroke="#000000" points="1929.5552,-86.1847 1939.7566,-83.3244 1929.998,-79.1988 1929.5552,-86.1847"/>
</g>
<!-- Documentable::DocPage::Primary::Language -->
<g id="node5" class="node">
<title>Documentable::DocPage::Primary::Language</title>
<g id="a_node5"><a xlink:href="/type/Documentable::DocPage::Primary::Language" xlink:title="Documentable::DocPage::Primary::Language">
<ellipse fill="none" stroke="#000000" cx="1408.083" cy="-18" rx="206.0634" ry="18"/>
<text text-anchor="middle" x="1408.083" y="-14.3" font-family="FreeSans" font-size="14.00" fill="#000000">Documentable::DocPage::Primary::Language</text>
</a>
</g>
</g>
<!-- Documentable::DocPage::Primary::Language&#45;&gt;Documentable::DocPage -->
<g id="edge4" class="edge">
<title>Documentable::DocPage::Primary::Language&#45;&gt;Documentable::DocPage</title>
<path fill="none" stroke="#000000" d="M1534.3144,-32.2679C1653.9009,-45.7848 1831.277,-65.8335 1942.4239,-78.3965"/>
<polygon fill="#000000" stroke="#000000" points="1942.3061,-81.9053 1952.636,-79.5507 1943.0924,-74.9496 1942.3061,-81.9053"/>
</g>
<!-- Documentable::DocPage::SubIndex::Routine -->
<g id="node6" class="node">
<title>Documentable::DocPage::SubIndex::Routine</title>
<g id="a_node6"><a xlink:href="/type/Documentable::DocPage::SubIndex::Routine" xlink:title="Documentable::DocPage::SubIndex::Routine">
<ellipse fill="none" stroke="#000000" cx="1838.083" cy="-18" rx="206.0634" ry="18"/>
<text text-anchor="middle" x="1838.083" y="-14.3" font-family="FreeSans" font-size="14.00" fill="#000000">Documentable::DocPage::SubIndex::Routine</text>
</a>
</g>
</g>
<!-- Documentable::DocPage::SubIndex::Routine&#45;&gt;Documentable::DocPage -->
<g id="edge5" class="edge">
<title>Documentable::DocPage::SubIndex::Routine&#45;&gt;Documentable::DocPage</title>
<path fill="none" stroke="#000000" d="M1888.4562,-35.5211C1918.6063,-46.0081 1957.0086,-59.3654 1988.2416,-70.2291"/>
<polygon fill="#000000" stroke="#000000" points="1987.0926,-73.535 1997.6874,-73.5145 1989.3922,-66.9235 1987.0926,-73.535"/>
</g>
<!-- Documentable::DocPage::SubIndex::Type -->
<g id="node7" class="node">
<title>Documentable::DocPage::SubIndex::Type</title>
<g id="a_node7"><a xlink:href="/type/Documentable::DocPage::SubIndex::Type" xlink:title="Documentable::DocPage::SubIndex::Type">
<ellipse fill="none" stroke="#000000" cx="2253.083" cy="-18" rx="191.1661" ry="18"/>
<text text-anchor="middle" x="2253.083" y="-14.3" font-family="FreeSans" font-size="14.00" fill="#000000">Documentable::DocPage::SubIndex::Type</text>
</a>
</g>
</g>
<!-- Documentable::DocPage::SubIndex::Type&#45;&gt;Documentable::DocPage -->
<g id="edge6" class="edge">
<title>Documentable::DocPage::SubIndex::Type&#45;&gt;Documentable::DocPage</title>
<path fill="none" stroke="#000000" d="M2202.732,-35.4292C2172.3324,-45.9521 2133.5112,-59.3902 2101.9999,-70.298"/>
<polygon fill="#000000" stroke="#000000" points="2100.7775,-67.0173 2092.4726,-73.5959 2103.0673,-73.6322 2100.7775,-67.0173"/>
</g>
<!-- Documentable::DocPage::Secondary -->
<g id="node8" class="node">
<title>Documentable::DocPage::Secondary</title>
<g id="a_node8"><a xlink:href="/type/Documentable::DocPage::Secondary" xlink:title="Documentable::DocPage::Secondary">
<ellipse fill="none" stroke="#000000" cx="2629.083" cy="-18" rx="167.0704" ry="18"/>
<text text-anchor="middle" x="2629.083" y="-14.3" font-family="FreeSans" font-size="14.00" fill="#000000">Documentable::DocPage::Secondary</text>
</a>
</g>
</g>
<!-- Documentable::DocPage::Secondary&#45;&gt;Documentable::DocPage -->
<g id="edge7" class="edge">
<title>Documentable::DocPage::Secondary&#45;&gt;Documentable::DocPage</title>
<path fill="none" stroke="#000000" d="M2518.894,-31.5849C2411.2499,-44.8561 2248.8565,-64.8773 2144.9079,-77.6928"/>
<polygon fill="#000000" stroke="#000000" points="2144.2187,-74.2512 2134.7221,-78.9486 2145.0753,-81.1986 2144.2187,-74.2512"/>
</g>
<!-- Documentable::DocPage::Primary::Programs -->
<g id="node9" class="node">
<title>Documentable::DocPage::Primary::Programs</title>
<g id="a_node9"><a xlink:href="/type/Documentable::DocPage::Primary::Programs" xlink:title="Documentable::DocPage::Primary::Programs">
<ellipse fill="none" stroke="#000000" cx="3020.083" cy="-18" rx="206.0634" ry="18"/>
<text text-anchor="middle" x="3020.083" y="-14.3" font-family="FreeSans" font-size="14.00" fill="#000000">Documentable::DocPage::Primary::Programs</text>
</a>
</g>
</g>
<!-- Documentable::DocPage::Primary::Programs&#45;&gt;Documentable::DocPage -->
<g id="edge8" class="edge">
<title>Documentable::DocPage::Primary::Programs&#45;&gt;Documentable::DocPage</title>
<path fill="none" stroke="#000000" d="M2871.0513,-30.4771C2834.2252,-33.5602 2805.083,-36 2805.083,-36 2805.083,-36 2370.5195,-66.8769 2158.6008,-81.9343"/>
<polygon fill="#000000" stroke="#000000" points="2158.0977,-78.4611 2148.371,-82.6611 2158.5939,-85.4435 2158.0977,-78.4611"/>
</g>
<!-- Documentable::DocPage::Index::Programs -->
<g id="node10" class="node">
<title>Documentable::DocPage::Index::Programs</title>
<g id="a_node10"><a xlink:href="/type/Documentable::DocPage::Index::Programs" xlink:title="Documentable::DocPage::Index::Programs">
<ellipse fill="none" stroke="#000000" cx="3440.083" cy="-18" rx="196.0654" ry="18"/>
<text text-anchor="middle" x="3440.083" y="-14.3" font-family="FreeSans" font-size="14.00" fill="#000000">Documentable::DocPage::Index::Programs</text>
</a>
</g>
</g>
<!-- Documentable::DocPage::Index::Programs&#45;&gt;Documentable::DocPage -->
<g id="edge9" class="edge">
<title>Documentable::DocPage::Index::Programs&#45;&gt;Documentable::DocPage</title>
<path fill="none" stroke="#000000" d="M3298.2625,-30.4525C3263.0173,-33.5472 3235.083,-36 3235.083,-36 3235.083,-36 2465.1957,-70.9361 2163.9246,-84.6072"/>
<polygon fill="#000000" stroke="#000000" points="2163.6733,-81.1149 2153.8423,-85.0647 2163.9907,-88.1077 2163.6733,-81.1149"/>
</g>
<!-- Documentable::DocPage::Index::Type -->
<g id="node11" class="node">
<title>Documentable::DocPage::Index::Type</title>
<g id="a_node11"><a xlink:href="/type/Documentable::DocPage::Index::Type" xlink:title="Documentable::DocPage::Index::Type">
<ellipse fill="none" stroke="#000000" cx="3831.083" cy="-18" rx="176.5689" ry="18"/>
<text text-anchor="middle" x="3831.083" y="-14.3" font-family="FreeSans" font-size="14.00" fill="#000000">Documentable::DocPage::Index::Type</text>
</a>
</g>
</g>
<!-- Documentable::DocPage::Index::Type&#45;&gt;Documentable::DocPage -->
<g id="edge10" class="edge">
<title>Documentable::DocPage::Index::Type&#45;&gt;Documentable::DocPage</title>
<path fill="none" stroke="#000000" d="M3702.915,-30.4034C3670.6972,-33.5212 3645.083,-36 3645.083,-36 3645.083,-36 2538.7717,-73.338 2166.0144,-85.9186"/>
<polygon fill="#000000" stroke="#000000" points="2165.8812,-82.421 2156.005,-86.2564 2166.1174,-89.417 2165.8812,-82.421"/>
</g>
</g>
</svg>
