<?xml version="1.0" encoding="UTF-8" standalone="no"?>
<!DOCTYPE svg PUBLIC "-//W3C//DTD SVG 1.1//EN"
 "http://www.w3.org/Graphics/SVG/1.1/DTD/svg11.dtd">
<!-- Generated by graphviz version 2.40.1 (0)
 -->
<!-- Title: perl6&#45;type&#45;graph Pages: 1 -->
<svg width="4016pt" height="116pt"
 viewBox="0.00 0.00 4016.31 116.00" xmlns="http://www.w3.org/2000/svg" xmlns:xlink="http://www.w3.org/1999/xlink">
<g id="graph0" class="graph" transform="scale(1 1) rotate(0) translate(4 112)">
<title>perl6&#45;type&#45;graph</title>
<polygon fill="#ffffff" stroke="transparent" points="-4,4 -4,-112 4012.3143,-112 4012.3143,4 -4,4"/>
<!-- Documentable::DocPage -->
<g id="node1" class="node">
<title>Documentable::DocPage</title>
<g id="a_node1"><a xlink:href="/type/Documentable::DocPage" xlink:title="Documentable::DocPage">
<ellipse fill="none" stroke="#6666ff" cx="2011.2826" cy="-90" rx="113.18" ry="18"/>
<text text-anchor="middle" x="2011.2826" y="-86.3" font-family="FreeSans" font-size="14.00" fill="#6666ff">Documentable::DocPage</text>
</a>
</g>
</g>
<!-- Documentable::DocPage::Index::Language -->
<g id="node2" class="node">
<title>Documentable::DocPage::Index::Language</title>
<g id="a_node2"><a xlink:href="/type/Documentable::DocPage::Index::Language" xlink:title="Documentable::DocPage::Index::Language">
<ellipse fill="none" stroke="#000000" cx="196.2826" cy="-18" rx="196.0654" ry="18"/>
<text text-anchor="middle" x="196.2826" y="-14.3" font-family="FreeSans" font-size="14.00" fill="#000000">Documentable::DocPage::Index::Language</text>
</a>
</g>
</g>
<!-- Documentable::DocPage::Index::Language&#45;&gt;Documentable::DocPage -->
<g id="edge1" class="edge">
<title>Documentable::DocPage::Index::Language&#45;&gt;Documentable::DocPage</title>
<path fill="none" stroke="#000000" d="M338.1031,-30.4525C373.3483,-33.5472 401.2826,-36 401.2826,-36 401.2826,-36 1516.4526,-73.4032 1890.5759,-85.9515"/>
<polygon fill="#000000" stroke="#000000" points="1890.509,-89.4511 1900.6208,-86.2884 1890.7437,-82.455 1890.509,-89.4511"/>
</g>
<!-- Documentable::DocPage::Primary::Language -->
<g id="node3" class="node">
<title>Documentable::DocPage::Primary::Language</title>
<g id="a_node3"><a xlink:href="/type/Documentable::DocPage::Primary::Language" xlink:title="Documentable::DocPage::Primary::Language">
<ellipse fill="none" stroke="#000000" cx="616.2826" cy="-18" rx="206.0634" ry="18"/>
<text text-anchor="middle" x="616.2826" y="-14.3" font-family="FreeSans" font-size="14.00" fill="#000000">Documentable::DocPage::Primary::Language</text>
</a>
</g>
</g>
<!-- Documentable::DocPage::Primary::Language&#45;&gt;Documentable::DocPage -->
<g id="edge2" class="edge">
<title>Documentable::DocPage::Primary::Language&#45;&gt;Documentable::DocPage</title>
<path fill="none" stroke="#000000" d="M765.3144,-30.4771C802.1405,-33.5602 831.2826,-36 831.2826,-36 831.2826,-36 1592.8685,-70.8522 1892.3618,-84.5579"/>
<polygon fill="#000000" stroke="#000000" points="1892.2365,-88.0557 1902.3861,-85.0166 1892.5566,-81.063 1892.2365,-88.0557"/>
</g>
<!-- Documentable::DocPage::Index::Programs -->
<g id="node4" class="node">
<title>Documentable::DocPage::Index::Programs</title>
<g id="a_node4"><a xlink:href="/type/Documentable::DocPage::Index::Programs" xlink:title="Documentable::DocPage::Index::Programs">
<ellipse fill="none" stroke="#000000" cx="1036.2826" cy="-18" rx="196.0654" ry="18"/>
<text text-anchor="middle" x="1036.2826" y="-14.3" font-family="FreeSans" font-size="14.00" fill="#000000">Documentable::DocPage::Index::Programs</text>
</a>
</g>
</g>
<!-- Documentable::DocPage::Index::Programs&#45;&gt;Documentable::DocPage -->
<g id="edge3" class="edge">
<title>Documentable::DocPage::Index::Programs&#45;&gt;Documentable::DocPage</title>
<path fill="none" stroke="#000000" d="M1178.1031,-30.4525C1213.3483,-33.5472 1241.2826,-36 1241.2826,-36 1241.2826,-36 1683.1219,-66.9861 1897.4076,-82.014"/>
<polygon fill="#000000" stroke="#000000" points="1897.2166,-85.5091 1907.437,-82.7173 1897.7063,-78.5262 1897.2166,-85.5091"/>
</g>
<!-- Documentable::DocPage::Index::Type -->
<g id="node5" class="node">
<title>Documentable::DocPage::Index::Type</title>
<g id="a_node5"><a xlink:href="/type/Documentable::DocPage::Index::Type" xlink:title="Documentable::DocPage::Index::Type">
<ellipse fill="none" stroke="#000000" cx="1427.2826" cy="-18" rx="176.5689" ry="18"/>
<text text-anchor="middle" x="1427.2826" y="-14.3" font-family="FreeSans" font-size="14.00" fill="#000000">Documentable::DocPage::Index::Type</text>
</a>
</g>
</g>
<!-- Documentable::DocPage::Index::Type&#45;&gt;Documentable::DocPage -->
<g id="edge4" class="edge">
<title>Documentable::DocPage::Index::Type&#45;&gt;Documentable::DocPage</title>
<path fill="none" stroke="#000000" d="M1539.8837,-31.8823C1647.5023,-45.1504 1808.2019,-64.9627 1911.3799,-77.6832"/>
<polygon fill="#000000" stroke="#000000" points="1911.1387,-81.1799 1921.4919,-78.9299 1911.9953,-74.2325 1911.1387,-81.1799"/>
</g>
<!-- Documentable::DocPage::SubIndex::Type -->
<g id="node6" class="node">
<title>Documentable::DocPage::SubIndex::Type</title>
<g id="a_node6"><a xlink:href="/type/Documentable::DocPage::SubIndex::Type" xlink:title="Documentable::DocPage::SubIndex::Type">
<ellipse fill="none" stroke="#000000" cx="1813.2826" cy="-18" rx="191.1661" ry="18"/>
<text text-anchor="middle" x="1813.2826" y="-14.3" font-family="FreeSans" font-size="14.00" fill="#000000">Documentable::DocPage::SubIndex::Type</text>
</a>
</g>
</g>
<!-- Documentable::DocPage::SubIndex::Type&#45;&gt;Documentable::DocPage -->
<g id="edge5" class="edge">
<title>Documentable::DocPage::SubIndex::Type&#45;&gt;Documentable::DocPage</title>
<path fill="none" stroke="#000000" d="M1861.2129,-35.4292C1889.9229,-45.8692 1926.5239,-59.1787 1956.3918,-70.0397"/>
<polygon fill="#000000" stroke="#000000" points="1955.24,-73.3451 1965.8341,-73.4733 1957.6323,-66.7665 1955.24,-73.3451"/>
</g>
<!-- Documentable::DocPage::Primary::Type -->
<g id="node7" class="node">
<title>Documentable::DocPage::Primary::Type</title>
<g id="a_node7"><a xlink:href="/type/Documentable::DocPage::Primary::Type" xlink:title="Documentable::DocPage::Primary::Type">
<ellipse fill="none" stroke="#000000" cx="2209.2826" cy="-18" rx="186.5669" ry="18"/>
<text text-anchor="middle" x="2209.2826" y="-14.3" font-family="FreeSans" font-size="14.00" fill="#000000">Documentable::DocPage::Primary::Type</text>
</a>
</g>
</g>
<!-- Documentable::DocPage::Primary::Type&#45;&gt;Documentable::DocPage -->
<g id="edge6" class="edge">
<title>Documentable::DocPage::Primary::Type&#45;&gt;Documentable::DocPage</title>
<path fill="none" stroke="#000000" d="M2161.3523,-35.4292C2132.6422,-45.8692 2096.0413,-59.1787 2066.1733,-70.0397"/>
<polygon fill="#000000" stroke="#000000" points="2064.9329,-66.7665 2056.7311,-73.4733 2067.3251,-73.3451 2064.9329,-66.7665"/>
</g>
<!-- Documentable::DocPage::Secondary -->
<g id="node8" class="node">
<title>Documentable::DocPage::Secondary</title>
<g id="a_node8"><a xlink:href="/type/Documentable::DocPage::Secondary" xlink:title="Documentable::DocPage::Secondary">
<ellipse fill="none" stroke="#000000" cx="2581.2826" cy="-18" rx="167.0704" ry="18"/>
<text text-anchor="middle" x="2581.2826" y="-14.3" font-family="FreeSans" font-size="14.00" fill="#000000">Documentable::DocPage::Secondary</text>
</a>
</g>
</g>
<!-- Documentable::DocPage::Secondary&#45;&gt;Documentable::DocPage -->
<g id="edge7" class="edge">
<title>Documentable::DocPage::Secondary&#45;&gt;Documentable::DocPage</title>
<path fill="none" stroke="#000000" d="M2472.7283,-31.7121C2368.2695,-44.9069 2211.6733,-64.6875 2110.4768,-77.4702"/>
<polygon fill="#000000" stroke="#000000" points="2109.7334,-74.0362 2100.2509,-78.7619 2110.6107,-80.981 2109.7334,-74.0362"/>
</g>
<!-- Documentable::DocPage::SubIndex::Routine -->
<g id="node9" class="node">
<title>Documentable::DocPage::SubIndex::Routine</title>
<g id="a_node9"><a xlink:href="/type/Documentable::DocPage::SubIndex::Routine" xlink:title="Documentable::DocPage::SubIndex::Routine">
<ellipse fill="none" stroke="#000000" cx="2972.2826" cy="-18" rx="206.0634" ry="18"/>
<text text-anchor="middle" x="2972.2826" y="-14.3" font-family="FreeSans" font-size="14.00" fill="#000000">Documentable::DocPage::SubIndex::Routine</text>
</a>
</g>
</g>
<!-- Documentable::DocPage::SubIndex::Routine&#45;&gt;Documentable::DocPage -->
<g id="edge8" class="edge">
<title>Documentable::DocPage::SubIndex::Routine&#45;&gt;Documentable::DocPage</title>
<path fill="none" stroke="#000000" d="M2823.2508,-30.4771C2786.4247,-33.5602 2757.2826,-36 2757.2826,-36 2757.2826,-36 2332.8894,-66.7202 2124.2993,-81.8192"/>
<polygon fill="#000000" stroke="#000000" points="2123.9486,-78.3353 2114.2275,-82.5482 2124.4541,-85.317 2123.9486,-78.3353"/>
</g>
<!-- Documentable::DocPage::Index::Routine -->
<g id="node10" class="node">
<title>Documentable::DocPage::Index::Routine</title>
<g id="a_node10"><a xlink:href="/type/Documentable::DocPage::Index::Routine" xlink:title="Documentable::DocPage::Index::Routine">
<ellipse fill="none" stroke="#000000" cx="3387.2826" cy="-18" rx="191.1661" ry="18"/>
<text text-anchor="middle" x="3387.2826" y="-14.3" font-family="FreeSans" font-size="14.00" fill="#000000">Documentable::DocPage::Index::Routine</text>
</a>
</g>
</g>
<!-- Documentable::DocPage::Index::Routine&#45;&gt;Documentable::DocPage -->
<g id="edge9" class="edge">
<title>Documentable::DocPage::Index::Routine&#45;&gt;Documentable::DocPage</title>
<path fill="none" stroke="#000000" d="M3248.9211,-30.4525C3214.5355,-33.5472 3187.2826,-36 3187.2826,-36 3187.2826,-36 2428.7344,-70.8313 2130.0695,-84.5455"/>
<polygon fill="#000000" stroke="#000000" points="2129.9014,-81.0494 2120.0725,-85.0045 2130.2225,-88.0421 2129.9014,-81.0494"/>
</g>
<!-- Documentable::DocPage::Primary::Programs -->
<g id="node11" class="node">
<title>Documentable::DocPage::Primary::Programs</title>
<g id="a_node11"><a xlink:href="/type/Documentable::DocPage::Primary::Programs" xlink:title="Documentable::DocPage::Primary::Programs">
<ellipse fill="none" stroke="#000000" cx="3802.2826" cy="-18" rx="206.0634" ry="18"/>
<text text-anchor="middle" x="3802.2826" y="-14.3" font-family="FreeSans" font-size="14.00" fill="#000000">Documentable::DocPage::Primary::Programs</text>
</a>
</g>
</g>
<!-- Documentable::DocPage::Primary::Programs&#45;&gt;Documentable::DocPage -->
<g id="edge10" class="edge">
<title>Documentable::DocPage::Primary::Programs&#45;&gt;Documentable::DocPage</title>
<path fill="none" stroke="#000000" d="M3653.2508,-30.4771C3616.4247,-33.5602 3587.2826,-36 3587.2826,-36 3587.2826,-36 2501.2695,-73.2111 2132.2796,-85.8542"/>
<polygon fill="#000000" stroke="#000000" points="2131.9781,-82.3623 2122.1038,-86.2028 2132.2179,-89.3582 2131.9781,-82.3623"/>
</g>
</g>
</svg>
