<?xml version="1.0" encoding="UTF-8" standalone="no"?>
<!DOCTYPE svg PUBLIC "-//W3C//DTD SVG 1.1//EN"
 "http://www.w3.org/Graphics/SVG/1.1/DTD/svg11.dtd">
<!-- Generated by graphviz version 2.40.1 (0)
 -->
<!-- Title: perl6&#45;type&#45;graph Pages: 1 -->
<svg width="4016pt" height="116pt"
 viewBox="0.00 0.00 4016.07 116.00" xmlns="http://www.w3.org/2000/svg" xmlns:xlink="http://www.w3.org/1999/xlink">
<g id="graph0" class="graph" transform="scale(1 1) rotate(0) translate(4 112)">
<title>perl6&#45;type&#45;graph</title>
<polygon fill="#ffffff" stroke="transparent" points="-4,4 -4,-112 4012.0669,-112 4012.0669,4 -4,4"/>
<!-- Documentable::DocPage -->
<g id="node1" class="node">
<title>Documentable::DocPage</title>
<g id="a_node1"><a xlink:href="/type/Documentable::DocPage" xlink:title="Documentable::DocPage">
<ellipse fill="none" stroke="#6666ff" cx="2030.0317" cy="-90" rx="113.18" ry="18"/>
<text text-anchor="middle" x="2030.0317" y="-86.3" font-family="FreeSans" font-size="14.00" fill="#6666ff">Documentable::DocPage</text>
</a>
</g>
</g>
<!-- Documentable::DocPage::Primary::Language -->
<g id="node2" class="node">
<title>Documentable::DocPage::Primary::Language</title>
<g id="a_node2"><a xlink:href="/type/Documentable::DocPage::Primary::Language" xlink:title="Documentable::DocPage::Primary::Language">
<ellipse fill="none" stroke="#000000" cx="206.0317" cy="-18" rx="206.0634" ry="18"/>
<text text-anchor="middle" x="206.0317" y="-14.3" font-family="FreeSans" font-size="14.00" fill="#000000">Documentable::DocPage::Primary::Language</text>
</a>
</g>
</g>
<!-- Documentable::DocPage::Primary::Language&#45;&gt;Documentable::DocPage -->
<g id="edge1" class="edge">
<title>Documentable::DocPage::Primary::Language&#45;&gt;Documentable::DocPage</title>
<path fill="none" stroke="#000000" d="M355.0635,-30.4771C391.8896,-33.5602 421.0317,-36 421.0317,-36 421.0317,-36 1534.8612,-73.3815 1909.0737,-85.9405"/>
<polygon fill="#000000" stroke="#000000" points="1909.0096,-89.4402 1919.1214,-86.2777 1909.2445,-82.4442 1909.0096,-89.4402"/>
</g>
<!-- Documentable::DocPage::Primary::Programs -->
<g id="node3" class="node">
<title>Documentable::DocPage::Primary::Programs</title>
<g id="a_node3"><a xlink:href="/type/Documentable::DocPage::Primary::Programs" xlink:title="Documentable::DocPage::Primary::Programs">
<ellipse fill="none" stroke="#000000" cx="636.0317" cy="-18" rx="206.0634" ry="18"/>
<text text-anchor="middle" x="636.0317" y="-14.3" font-family="FreeSans" font-size="14.00" fill="#000000">Documentable::DocPage::Primary::Programs</text>
</a>
</g>
</g>
<!-- Documentable::DocPage::Primary::Programs&#45;&gt;Documentable::DocPage -->
<g id="edge2" class="edge">
<title>Documentable::DocPage::Primary::Programs&#45;&gt;Documentable::DocPage</title>
<path fill="none" stroke="#000000" d="M785.0635,-30.4771C821.8896,-33.5602 851.0317,-36 851.0317,-36 851.0317,-36 1611.9722,-70.8522 1911.2117,-84.5579"/>
<polygon fill="#000000" stroke="#000000" points="1911.0778,-88.0553 1921.2275,-85.0166 1911.3982,-81.0626 1911.0778,-88.0553"/>
</g>
<!-- Documentable::DocPage::Index::Type -->
<g id="node4" class="node">
<title>Documentable::DocPage::Index::Type</title>
<g id="a_node4"><a xlink:href="/type/Documentable::DocPage::Index::Type" xlink:title="Documentable::DocPage::Index::Type">
<ellipse fill="none" stroke="#000000" cx="1037.0317" cy="-18" rx="176.5689" ry="18"/>
<text text-anchor="middle" x="1037.0317" y="-14.3" font-family="FreeSans" font-size="14.00" fill="#000000">Documentable::DocPage::Index::Type</text>
</a>
</g>
</g>
<!-- Documentable::DocPage::Index::Type&#45;&gt;Documentable::DocPage -->
<g id="edge3" class="edge">
<title>Documentable::DocPage::Index::Type&#45;&gt;Documentable::DocPage</title>
<path fill="none" stroke="#000000" d="M1165.1997,-30.4034C1197.4176,-33.5212 1223.0317,-36 1223.0317,-36 1223.0317,-36 1693.055,-67.4514 1915.6835,-82.3484"/>
<polygon fill="#000000" stroke="#000000" points="1915.5592,-85.8479 1925.7706,-83.0234 1916.0266,-78.8635 1915.5592,-85.8479"/>
</g>
<!-- Documentable::DocPage::SubIndex::Type -->
<g id="node5" class="node">
<title>Documentable::DocPage::SubIndex::Type</title>
<g id="a_node5"><a xlink:href="/type/Documentable::DocPage::SubIndex::Type" xlink:title="Documentable::DocPage::SubIndex::Type">
<ellipse fill="none" stroke="#000000" cx="1423.0317" cy="-18" rx="191.1661" ry="18"/>
<text text-anchor="middle" x="1423.0317" y="-14.3" font-family="FreeSans" font-size="14.00" fill="#000000">Documentable::DocPage::SubIndex::Type</text>
</a>
</g>
</g>
<!-- Documentable::DocPage::SubIndex::Type&#45;&gt;Documentable::DocPage -->
<g id="edge4" class="edge">
<title>Documentable::DocPage::SubIndex::Type&#45;&gt;Documentable::DocPage</title>
<path fill="none" stroke="#000000" d="M1541.8696,-32.0961C1654.7142,-45.4813 1822.5032,-65.3838 1929.0475,-78.0216"/>
<polygon fill="#000000" stroke="#000000" points="1928.8205,-81.5192 1939.1631,-79.2215 1929.645,-74.5679 1928.8205,-81.5192"/>
</g>
<!-- Documentable::DocPage::Index::Language -->
<g id="node6" class="node">
<title>Documentable::DocPage::Index::Language</title>
<g id="a_node6"><a xlink:href="/type/Documentable::DocPage::Index::Language" xlink:title="Documentable::DocPage::Index::Language">
<ellipse fill="none" stroke="#000000" cx="1828.0317" cy="-18" rx="196.0654" ry="18"/>
<text text-anchor="middle" x="1828.0317" y="-14.3" font-family="FreeSans" font-size="14.00" fill="#000000">Documentable::DocPage::Index::Language</text>
</a>
</g>
</g>
<!-- Documentable::DocPage::Index::Language&#45;&gt;Documentable::DocPage -->
<g id="edge5" class="edge">
<title>Documentable::DocPage::Index::Language&#45;&gt;Documentable::DocPage</title>
<path fill="none" stroke="#000000" d="M1877.1882,-35.5211C1906.4832,-45.9629 1943.7618,-59.2503 1974.1688,-70.0884"/>
<polygon fill="#000000" stroke="#000000" points="1973.1862,-73.4539 1983.7809,-73.5145 1975.5365,-66.8602 1973.1862,-73.4539"/>
</g>
<!-- Documentable::DocPage::Index::Routine -->
<g id="node7" class="node">
<title>Documentable::DocPage::Index::Routine</title>
<g id="a_node7"><a xlink:href="/type/Documentable::DocPage::Index::Routine" xlink:title="Documentable::DocPage::Index::Routine">
<ellipse fill="none" stroke="#000000" cx="2233.0317" cy="-18" rx="191.1661" ry="18"/>
<text text-anchor="middle" x="2233.0317" y="-14.3" font-family="FreeSans" font-size="14.00" fill="#000000">Documentable::DocPage::Index::Routine</text>
</a>
</g>
</g>
<!-- Documentable::DocPage::Index::Routine&#45;&gt;Documentable::DocPage -->
<g id="edge6" class="edge">
<title>Documentable::DocPage::Index::Routine&#45;&gt;Documentable::DocPage</title>
<path fill="none" stroke="#000000" d="M2183.8911,-35.4292C2154.456,-45.8692 2116.9308,-59.1787 2086.3086,-70.0397"/>
<polygon fill="#000000" stroke="#000000" points="2084.8827,-66.8318 2076.6279,-73.4733 2087.2226,-73.4291 2084.8827,-66.8318"/>
</g>
<!-- Documentable::DocPage::SubIndex::Routine -->
<g id="node8" class="node">
<title>Documentable::DocPage::SubIndex::Routine</title>
<g id="a_node8"><a xlink:href="/type/Documentable::DocPage::SubIndex::Routine" xlink:title="Documentable::DocPage::SubIndex::Routine">
<ellipse fill="none" stroke="#000000" cx="2648.0317" cy="-18" rx="206.0634" ry="18"/>
<text text-anchor="middle" x="2648.0317" y="-14.3" font-family="FreeSans" font-size="14.00" fill="#000000">Documentable::DocPage::SubIndex::Routine</text>
</a>
</g>
</g>
<!-- Documentable::DocPage::SubIndex::Routine&#45;&gt;Documentable::DocPage -->
<g id="edge7" class="edge">
<title>Documentable::DocPage::SubIndex::Routine&#45;&gt;Documentable::DocPage</title>
<path fill="none" stroke="#000000" d="M2524.0847,-32.4404C2408.8801,-45.8623 2239.343,-65.6142 2131.8434,-78.1384"/>
<polygon fill="#000000" stroke="#000000" points="2131.1655,-74.6937 2121.6377,-79.3275 2131.9756,-81.6466 2131.1655,-74.6937"/>
</g>
<!-- Documentable::DocPage::Primary::Type -->
<g id="node9" class="node">
<title>Documentable::DocPage::Primary::Type</title>
<g id="a_node9"><a xlink:href="/type/Documentable::DocPage::Primary::Type" xlink:title="Documentable::DocPage::Primary::Type">
<ellipse fill="none" stroke="#000000" cx="3059.0317" cy="-18" rx="186.5669" ry="18"/>
<text text-anchor="middle" x="3059.0317" y="-14.3" font-family="FreeSans" font-size="14.00" fill="#000000">Documentable::DocPage::Primary::Type</text>
</a>
</g>
</g>
<!-- Documentable::DocPage::Primary::Type&#45;&gt;Documentable::DocPage -->
<g id="edge8" class="edge">
<title>Documentable::DocPage::Primary::Type&#45;&gt;Documentable::DocPage</title>
<path fill="none" stroke="#000000" d="M2923.7051,-30.428C2889.8811,-33.5342 2863.0317,-36 2863.0317,-36 2863.0317,-36 2373.7048,-67.7211 2145.1285,-82.5387"/>
<polygon fill="#000000" stroke="#000000" points="2144.8623,-79.0486 2135.1097,-83.1882 2145.3152,-86.0339 2144.8623,-79.0486"/>
</g>
<!-- Documentable::DocPage::Index::Programs -->
<g id="node10" class="node">
<title>Documentable::DocPage::Index::Programs</title>
<g id="a_node10"><a xlink:href="/type/Documentable::DocPage::Index::Programs" xlink:title="Documentable::DocPage::Index::Programs">
<ellipse fill="none" stroke="#000000" cx="3460.0317" cy="-18" rx="196.0654" ry="18"/>
<text text-anchor="middle" x="3460.0317" y="-14.3" font-family="FreeSans" font-size="14.00" fill="#000000">Documentable::DocPage::Index::Programs</text>
</a>
</g>
</g>
<!-- Documentable::DocPage::Index::Programs&#45;&gt;Documentable::DocPage -->
<g id="edge9" class="edge">
<title>Documentable::DocPage::Index::Programs&#45;&gt;Documentable::DocPage</title>
<path fill="none" stroke="#000000" d="M3318.2112,-30.4525C3282.966,-33.5472 3255.0317,-36 3255.0317,-36 3255.0317,-36 2457.7364,-71.1461 2149.5894,-84.7297"/>
<polygon fill="#000000" stroke="#000000" points="2149.1169,-81.247 2139.2808,-85.1841 2149.4252,-88.2402 2149.1169,-81.247"/>
</g>
<!-- Documentable::DocPage::Secondary -->
<g id="node11" class="node">
<title>Documentable::DocPage::Secondary</title>
<g id="a_node11"><a xlink:href="/type/Documentable::DocPage::Secondary" xlink:title="Documentable::DocPage::Secondary">
<ellipse fill="none" stroke="#000000" cx="3841.0317" cy="-18" rx="167.0704" ry="18"/>
<text text-anchor="middle" x="3841.0317" y="-14.3" font-family="FreeSans" font-size="14.00" fill="#000000">Documentable::DocPage::Secondary</text>
</a>
</g>
</g>
<!-- Documentable::DocPage::Secondary&#45;&gt;Documentable::DocPage -->
<g id="edge10" class="edge">
<title>Documentable::DocPage::Secondary&#45;&gt;Documentable::DocPage</title>
<path fill="none" stroke="#000000" d="M3719.7545,-30.4034C3689.2688,-33.5212 3665.0317,-36 3665.0317,-36 3665.0317,-36 2529.2509,-73.512 2150.9608,-86.006"/>
<polygon fill="#000000" stroke="#000000" points="2150.6851,-82.5131 2140.8061,-86.3414 2150.9163,-89.5093 2150.6851,-82.5131"/>
</g>
</g>
</svg>
