<?xml version="1.0" encoding="UTF-8" standalone="no"?>
<!DOCTYPE svg PUBLIC "-//W3C//DTD SVG 1.1//EN"
 "http://www.w3.org/Graphics/SVG/1.1/DTD/svg11.dtd">
<!-- Generated by graphviz version 2.40.1 (0)
 -->
<!-- Title: perl6&#45;type&#45;graph Pages: 1 -->
<svg width="4017pt" height="116pt"
 viewBox="0.00 0.00 4016.82 116.00" xmlns="http://www.w3.org/2000/svg" xmlns:xlink="http://www.w3.org/1999/xlink">
<g id="graph0" class="graph" transform="scale(1 1) rotate(0) translate(4 112)">
<title>perl6&#45;type&#45;graph</title>
<polygon fill="#ffffff" stroke="transparent" points="-4,4 -4,-112 4012.816,-112 4012.816,4 -4,4"/>
<!-- Documentable::DocPage -->
<g id="node1" class="node">
<title>Documentable::DocPage</title>
<g id="a_node1"><a xlink:href="/type/Documentable::DocPage" xlink:title="Documentable::DocPage">
<ellipse fill="none" stroke="#6666ff" cx="2024.5334" cy="-90" rx="113.18" ry="18"/>
<text text-anchor="middle" x="2024.5334" y="-86.3" font-family="FreeSans" font-size="14.00" fill="#6666ff">Documentable::DocPage</text>
</a>
</g>
</g>
<!-- Documentable::DocPage::Primary::Type -->
<g id="node2" class="node">
<title>Documentable::DocPage::Primary::Type</title>
<g id="a_node2"><a xlink:href="/type/Documentable::DocPage::Primary::Type" xlink:title="Documentable::DocPage::Primary::Type">
<ellipse fill="none" stroke="#000000" cx="186.5334" cy="-18" rx="186.5669" ry="18"/>
<text text-anchor="middle" x="186.5334" y="-14.3" font-family="FreeSans" font-size="14.00" fill="#000000">Documentable::DocPage::Primary::Type</text>
</a>
</g>
</g>
<!-- Documentable::DocPage::Primary::Type&#45;&gt;Documentable::DocPage -->
<g id="edge1" class="edge">
<title>Documentable::DocPage::Primary::Type&#45;&gt;Documentable::DocPage</title>
<path fill="none" stroke="#000000" d="M321.8601,-30.428C355.684,-33.5342 382.5334,-36 382.5334,-36 382.5334,-36 1523.8392,-73.5338 1903.4172,-86.0169"/>
<polygon fill="#000000" stroke="#000000" points="1903.4964,-89.5213 1913.6061,-86.352 1903.7266,-82.5251 1903.4964,-89.5213"/>
</g>
<!-- Documentable::DocPage::SubIndex::Routine -->
<g id="node3" class="node">
<title>Documentable::DocPage::SubIndex::Routine</title>
<g id="a_node3"><a xlink:href="/type/Documentable::DocPage::SubIndex::Routine" xlink:title="Documentable::DocPage::SubIndex::Routine">
<ellipse fill="none" stroke="#000000" cx="597.5334" cy="-18" rx="206.0634" ry="18"/>
<text text-anchor="middle" x="597.5334" y="-14.3" font-family="FreeSans" font-size="14.00" fill="#000000">Documentable::DocPage::SubIndex::Routine</text>
</a>
</g>
</g>
<!-- Documentable::DocPage::SubIndex::Routine&#45;&gt;Documentable::DocPage -->
<g id="edge2" class="edge">
<title>Documentable::DocPage::SubIndex::Routine&#45;&gt;Documentable::DocPage</title>
<path fill="none" stroke="#000000" d="M746.5652,-30.4771C783.3913,-33.5602 812.5334,-36 812.5334,-36 812.5334,-36 1599.4805,-71.062 1905.1477,-84.6808"/>
<polygon fill="#000000" stroke="#000000" points="1905.229,-88.1878 1915.375,-85.1365 1905.5407,-81.1948 1905.229,-88.1878"/>
</g>
<!-- Documentable::DocPage::Index::Type -->
<g id="node4" class="node">
<title>Documentable::DocPage::Index::Type</title>
<g id="a_node4"><a xlink:href="/type/Documentable::DocPage::Index::Type" xlink:title="Documentable::DocPage::Index::Type">
<ellipse fill="none" stroke="#000000" cx="998.5334" cy="-18" rx="176.5689" ry="18"/>
<text text-anchor="middle" x="998.5334" y="-14.3" font-family="FreeSans" font-size="14.00" fill="#000000">Documentable::DocPage::Index::Type</text>
</a>
</g>
</g>
<!-- Documentable::DocPage::Index::Type&#45;&gt;Documentable::DocPage -->
<g id="edge3" class="edge">
<title>Documentable::DocPage::Index::Type&#45;&gt;Documentable::DocPage</title>
<path fill="none" stroke="#000000" d="M1126.7015,-30.4034C1158.9193,-33.5212 1184.5334,-36 1184.5334,-36 1184.5334,-36 1679.2121,-67.8008 1909.3364,-82.5945"/>
<polygon fill="#000000" stroke="#000000" points="1909.2177,-86.094 1919.4217,-83.2428 1909.6669,-79.1084 1909.2177,-86.094"/>
</g>
<!-- Documentable::DocPage::Primary::Language -->
<g id="node5" class="node">
<title>Documentable::DocPage::Primary::Language</title>
<g id="a_node5"><a xlink:href="/type/Documentable::DocPage::Primary::Language" xlink:title="Documentable::DocPage::Primary::Language">
<ellipse fill="none" stroke="#000000" cx="1399.5334" cy="-18" rx="206.0634" ry="18"/>
<text text-anchor="middle" x="1399.5334" y="-14.3" font-family="FreeSans" font-size="14.00" fill="#000000">Documentable::DocPage::Primary::Language</text>
</a>
</g>
</g>
<!-- Documentable::DocPage::Primary::Language&#45;&gt;Documentable::DocPage -->
<g id="edge4" class="edge">
<title>Documentable::DocPage::Primary::Language&#45;&gt;Documentable::DocPage</title>
<path fill="none" stroke="#000000" d="M1524.1348,-32.3541C1641.03,-45.8204 1813.718,-65.7141 1922.6115,-78.2586"/>
<polygon fill="#000000" stroke="#000000" points="1922.285,-81.744 1932.6199,-79.4116 1923.0861,-74.79 1922.285,-81.744"/>
</g>
<!-- Documentable::DocPage::Primary::Programs -->
<g id="node6" class="node">
<title>Documentable::DocPage::Primary::Programs</title>
<g id="a_node6"><a xlink:href="/type/Documentable::DocPage::Primary::Programs" xlink:title="Documentable::DocPage::Primary::Programs">
<ellipse fill="none" stroke="#000000" cx="1829.5334" cy="-18" rx="206.0634" ry="18"/>
<text text-anchor="middle" x="1829.5334" y="-14.3" font-family="FreeSans" font-size="14.00" fill="#000000">Documentable::DocPage::Primary::Programs</text>
</a>
</g>
</g>
<!-- Documentable::DocPage::Primary::Programs&#45;&gt;Documentable::DocPage -->
<g id="edge5" class="edge">
<title>Documentable::DocPage::Primary::Programs&#45;&gt;Documentable::DocPage</title>
<path fill="none" stroke="#000000" d="M1877.2358,-35.6132C1905.2963,-45.974 1940.8791,-59.1122 1970.0418,-69.88"/>
<polygon fill="#000000" stroke="#000000" points="1969.0722,-73.2529 1979.6655,-73.4334 1971.4969,-66.6862 1969.0722,-73.2529"/>
</g>
<!-- Documentable::DocPage::Secondary -->
<g id="node7" class="node">
<title>Documentable::DocPage::Secondary</title>
<g id="a_node7"><a xlink:href="/type/Documentable::DocPage::Secondary" xlink:title="Documentable::DocPage::Secondary">
<ellipse fill="none" stroke="#000000" cx="2220.5334" cy="-18" rx="167.0704" ry="18"/>
<text text-anchor="middle" x="2220.5334" y="-14.3" font-family="FreeSans" font-size="14.00" fill="#000000">Documentable::DocPage::Secondary</text>
</a>
</g>
</g>
<!-- Documentable::DocPage::Secondary&#45;&gt;Documentable::DocPage -->
<g id="edge6" class="edge">
<title>Documentable::DocPage::Secondary&#45;&gt;Documentable::DocPage</title>
<path fill="none" stroke="#000000" d="M2173.0873,-35.4292C2144.7903,-45.824 2108.7495,-59.0635 2079.2541,-69.8985"/>
<polygon fill="#000000" stroke="#000000" points="2077.7027,-66.7397 2069.5229,-73.4733 2080.1164,-73.3104 2077.7027,-66.7397"/>
</g>
<!-- Documentable::DocPage::Index::Routine -->
<g id="node8" class="node">
<title>Documentable::DocPage::Index::Routine</title>
<g id="a_node8"><a xlink:href="/type/Documentable::DocPage::Index::Routine" xlink:title="Documentable::DocPage::Index::Routine">
<ellipse fill="none" stroke="#000000" cx="2596.5334" cy="-18" rx="191.1661" ry="18"/>
<text text-anchor="middle" x="2596.5334" y="-14.3" font-family="FreeSans" font-size="14.00" fill="#000000">Documentable::DocPage::Index::Routine</text>
</a>
</g>
</g>
<!-- Documentable::DocPage::Index::Routine&#45;&gt;Documentable::DocPage -->
<g id="edge7" class="edge">
<title>Documentable::DocPage::Index::Routine&#45;&gt;Documentable::DocPage</title>
<path fill="none" stroke="#000000" d="M2481.8123,-32.4404C2376.8166,-45.6567 2223.0619,-65.0104 2123.3806,-77.5577"/>
<polygon fill="#000000" stroke="#000000" points="2122.7905,-74.1043 2113.3059,-78.8258 2123.6648,-81.0495 2122.7905,-74.1043"/>
</g>
<!-- Documentable::DocPage::SubIndex::Type -->
<g id="node9" class="node">
<title>Documentable::DocPage::SubIndex::Type</title>
<g id="a_node9"><a xlink:href="/type/Documentable::DocPage::SubIndex::Type" xlink:title="Documentable::DocPage::SubIndex::Type">
<ellipse fill="none" stroke="#000000" cx="2996.5334" cy="-18" rx="191.1661" ry="18"/>
<text text-anchor="middle" x="2996.5334" y="-14.3" font-family="FreeSans" font-size="14.00" fill="#000000">Documentable::DocPage::SubIndex::Type</text>
</a>
</g>
</g>
<!-- Documentable::DocPage::SubIndex::Type&#45;&gt;Documentable::DocPage -->
<g id="edge8" class="edge">
<title>Documentable::DocPage::SubIndex::Type&#45;&gt;Documentable::DocPage</title>
<path fill="none" stroke="#000000" d="M2858.172,-30.4525C2823.7864,-33.5472 2796.5334,-36 2796.5334,-36 2796.5334,-36 2352.9841,-67.0255 2138.2956,-82.0425"/>
<polygon fill="#000000" stroke="#000000" points="2137.9794,-78.556 2128.248,-82.7454 2138.4679,-85.539 2137.9794,-78.556"/>
</g>
<!-- Documentable::DocPage::Index::Programs -->
<g id="node10" class="node">
<title>Documentable::DocPage::Index::Programs</title>
<g id="a_node10"><a xlink:href="/type/Documentable::DocPage::Index::Programs" xlink:title="Documentable::DocPage::Index::Programs">
<ellipse fill="none" stroke="#000000" cx="3401.5334" cy="-18" rx="196.0654" ry="18"/>
<text text-anchor="middle" x="3401.5334" y="-14.3" font-family="FreeSans" font-size="14.00" fill="#000000">Documentable::DocPage::Index::Programs</text>
</a>
</g>
</g>
<!-- Documentable::DocPage::Index::Programs&#45;&gt;Documentable::DocPage -->
<g id="edge9" class="edge">
<title>Documentable::DocPage::Index::Programs&#45;&gt;Documentable::DocPage</title>
<path fill="none" stroke="#000000" d="M3259.7129,-30.4525C3224.4677,-33.5472 3196.5334,-36 3196.5334,-36 3196.5334,-36 2441.7657,-70.776 2143.6264,-84.5128"/>
<polygon fill="#000000" stroke="#000000" points="2143.0435,-81.0358 2133.2153,-84.9925 2143.3658,-88.0284 2143.0435,-81.0358"/>
</g>
<!-- Documentable::DocPage::Index::Language -->
<g id="node11" class="node">
<title>Documentable::DocPage::Index::Language</title>
<g id="a_node11"><a xlink:href="/type/Documentable::DocPage::Index::Language" xlink:title="Documentable::DocPage::Index::Language">
<ellipse fill="none" stroke="#000000" cx="3812.5334" cy="-18" rx="196.0654" ry="18"/>
<text text-anchor="middle" x="3812.5334" y="-14.3" font-family="FreeSans" font-size="14.00" fill="#000000">Documentable::DocPage::Index::Language</text>
</a>
</g>
</g>
<!-- Documentable::DocPage::Index::Language&#45;&gt;Documentable::DocPage -->
<g id="edge10" class="edge">
<title>Documentable::DocPage::Index::Language&#45;&gt;Documentable::DocPage</title>
<path fill="none" stroke="#000000" d="M3670.3024,-30.428C3634.7527,-33.5342 3606.5334,-36 3606.5334,-36 3606.5334,-36 2515.1148,-73.2545 2145.3443,-85.8762"/>
<polygon fill="#000000" stroke="#000000" points="2145.0226,-82.3851 2135.1478,-86.2243 2145.2615,-89.381 2145.0226,-82.3851"/>
</g>
</g>
</svg>
