<?xml version="1.0" encoding="UTF-8" standalone="no"?>
<!DOCTYPE svg PUBLIC "-//W3C//DTD SVG 1.1//EN"
 "http://www.w3.org/Graphics/SVG/1.1/DTD/svg11.dtd">
<!-- Generated by graphviz version 2.40.1 (0)
 -->
<!-- Title: perl6&#45;type&#45;graph Pages: 1 -->
<svg width="4015pt" height="116pt"
 viewBox="0.00 0.00 4015.07 116.00" xmlns="http://www.w3.org/2000/svg" xmlns:xlink="http://www.w3.org/1999/xlink">
<g id="graph0" class="graph" transform="scale(1 1) rotate(0) translate(4 112)">
<title>perl6&#45;type&#45;graph</title>
<polygon fill="#ffffff" stroke="transparent" points="-4,4 -4,-112 4011.0669,-112 4011.0669,4 -4,4"/>
<!-- Documentable::DocPage -->
<g id="node1" class="node">
<title>Documentable::DocPage</title>
<g id="a_node1"><a xlink:href="/type/Documentable::DocPage" xlink:title="Documentable::DocPage">
<ellipse fill="none" stroke="#6666ff" cx="2051.0317" cy="-90" rx="113.18" ry="18"/>
<text text-anchor="middle" x="2051.0317" y="-86.3" font-family="FreeSans" font-size="14.00" fill="#6666ff">Documentable::DocPage</text>
</a>
</g>
</g>
<!-- Documentable::DocPage::Primary::Programs -->
<g id="node2" class="node">
<title>Documentable::DocPage::Primary::Programs</title>
<g id="a_node2"><a xlink:href="/type/Documentable::DocPage::Primary::Programs" xlink:title="Documentable::DocPage::Primary::Programs">
<ellipse fill="none" stroke="#000000" cx="206.0317" cy="-18" rx="206.0634" ry="18"/>
<text text-anchor="middle" x="206.0317" y="-14.3" font-family="FreeSans" font-size="14.00" fill="#000000">Documentable::DocPage::Primary::Programs</text>
</a>
</g>
</g>
<!-- Documentable::DocPage::Primary::Programs&#45;&gt;Documentable::DocPage -->
<g id="edge1" class="edge">
<title>Documentable::DocPage::Primary::Programs&#45;&gt;Documentable::DocPage</title>
<path fill="none" stroke="#000000" d="M355.0635,-30.4771C391.8896,-33.5602 421.0317,-36 421.0317,-36 421.0317,-36 1552.6819,-73.4903 1930.1438,-85.9951"/>
<polygon fill="#000000" stroke="#000000" points="1930.1662,-89.4977 1940.2767,-86.3308 1930.3981,-82.5015 1930.1662,-89.4977"/>
</g>
<!-- Documentable::DocPage::SubIndex::Type -->
<g id="node3" class="node">
<title>Documentable::DocPage::SubIndex::Type</title>
<g id="a_node3"><a xlink:href="/type/Documentable::DocPage::SubIndex::Type" xlink:title="Documentable::DocPage::SubIndex::Type">
<ellipse fill="none" stroke="#000000" cx="621.0317" cy="-18" rx="191.1661" ry="18"/>
<text text-anchor="middle" x="621.0317" y="-14.3" font-family="FreeSans" font-size="14.00" fill="#000000">Documentable::DocPage::SubIndex::Type</text>
</a>
</g>
</g>
<!-- Documentable::DocPage::SubIndex::Type&#45;&gt;Documentable::DocPage -->
<g id="edge2" class="edge">
<title>Documentable::DocPage::SubIndex::Type&#45;&gt;Documentable::DocPage</title>
<path fill="none" stroke="#000000" d="M759.3932,-30.4525C793.7788,-33.5472 821.0317,-36 821.0317,-36 821.0317,-36 1622.5398,-71.1882 1931.541,-84.7541"/>
<polygon fill="#000000" stroke="#000000" points="1931.7335,-88.2658 1941.8774,-85.2079 1932.0406,-81.2725 1931.7335,-88.2658"/>
</g>
<!-- Documentable::DocPage::Index::Language -->
<g id="node4" class="node">
<title>Documentable::DocPage::Index::Language</title>
<g id="a_node4"><a xlink:href="/type/Documentable::DocPage::Index::Language" xlink:title="Documentable::DocPage::Index::Language">
<ellipse fill="none" stroke="#000000" cx="1026.0317" cy="-18" rx="196.0654" ry="18"/>
<text text-anchor="middle" x="1026.0317" y="-14.3" font-family="FreeSans" font-size="14.00" fill="#000000">Documentable::DocPage::Index::Language</text>
</a>
</g>
</g>
<!-- Documentable::DocPage::Index::Language&#45;&gt;Documentable::DocPage -->
<g id="edge3" class="edge">
<title>Documentable::DocPage::Index::Language&#45;&gt;Documentable::DocPage</title>
<path fill="none" stroke="#000000" d="M1167.8522,-30.4525C1203.0974,-33.5472 1231.0317,-36 1231.0317,-36 1231.0317,-36 1710.434,-67.5704 1936.1217,-82.4328"/>
<polygon fill="#000000" stroke="#000000" points="1936.1368,-85.9412 1946.3453,-83.106 1936.5969,-78.9564 1936.1368,-85.9412"/>
</g>
<!-- Documentable::DocPage::Index::Routine -->
<g id="node5" class="node">
<title>Documentable::DocPage::Index::Routine</title>
<g id="a_node5"><a xlink:href="/type/Documentable::DocPage::Index::Routine" xlink:title="Documentable::DocPage::Index::Routine">
<ellipse fill="none" stroke="#000000" cx="1431.0317" cy="-18" rx="191.1661" ry="18"/>
<text text-anchor="middle" x="1431.0317" y="-14.3" font-family="FreeSans" font-size="14.00" fill="#000000">Documentable::DocPage::Index::Routine</text>
</a>
</g>
</g>
<!-- Documentable::DocPage::Index::Routine&#45;&gt;Documentable::DocPage -->
<g id="edge4" class="edge">
<title>Documentable::DocPage::Index::Routine&#45;&gt;Documentable::DocPage</title>
<path fill="none" stroke="#000000" d="M1551.6772,-32.0104C1667.4838,-45.4589 1840.4373,-65.5439 1949.4127,-78.1991"/>
<polygon fill="#000000" stroke="#000000" points="1949.0911,-81.6852 1959.4281,-79.3622 1949.8986,-74.7319 1949.0911,-81.6852"/>
</g>
<!-- Documentable::DocPage::SubIndex::Routine -->
<g id="node6" class="node">
<title>Documentable::DocPage::SubIndex::Routine</title>
<g id="a_node6"><a xlink:href="/type/Documentable::DocPage::SubIndex::Routine" xlink:title="Documentable::DocPage::SubIndex::Routine">
<ellipse fill="none" stroke="#000000" cx="1846.0317" cy="-18" rx="206.0634" ry="18"/>
<text text-anchor="middle" x="1846.0317" y="-14.3" font-family="FreeSans" font-size="14.00" fill="#000000">Documentable::DocPage::SubIndex::Routine</text>
</a>
</g>
</g>
<!-- Documentable::DocPage::SubIndex::Routine&#45;&gt;Documentable::DocPage -->
<g id="edge5" class="edge">
<title>Documentable::DocPage::SubIndex::Routine&#45;&gt;Documentable::DocPage</title>
<path fill="none" stroke="#000000" d="M1895.9182,-35.5211C1925.6483,-45.9629 1963.4805,-59.2503 1994.3391,-70.0884"/>
<polygon fill="#000000" stroke="#000000" points="1993.4991,-73.503 2004.094,-73.5145 1995.8188,-66.8985 1993.4991,-73.503"/>
</g>
<!-- Documentable::DocPage::Primary::Type -->
<g id="node7" class="node">
<title>Documentable::DocPage::Primary::Type</title>
<g id="a_node7"><a xlink:href="/type/Documentable::DocPage::Primary::Type" xlink:title="Documentable::DocPage::Primary::Type">
<ellipse fill="none" stroke="#000000" cx="2257.0317" cy="-18" rx="186.5669" ry="18"/>
<text text-anchor="middle" x="2257.0317" y="-14.3" font-family="FreeSans" font-size="14.00" fill="#000000">Documentable::DocPage::Primary::Type</text>
</a>
</g>
</g>
<!-- Documentable::DocPage::Primary::Type&#45;&gt;Documentable::DocPage -->
<g id="edge6" class="edge">
<title>Documentable::DocPage::Primary::Type&#45;&gt;Documentable::DocPage</title>
<path fill="none" stroke="#000000" d="M2207.1649,-35.4292C2177.1873,-45.9068 2138.9409,-59.2745 2107.8052,-70.1568"/>
<polygon fill="#000000" stroke="#000000" points="2106.2508,-66.9924 2097.9656,-73.5959 2108.5604,-73.6005 2106.2508,-66.9924"/>
</g>
<!-- Documentable::DocPage::Index::Type -->
<g id="node8" class="node">
<title>Documentable::DocPage::Index::Type</title>
<g id="a_node8"><a xlink:href="/type/Documentable::DocPage::Index::Type" xlink:title="Documentable::DocPage::Index::Type">
<ellipse fill="none" stroke="#000000" cx="2638.0317" cy="-18" rx="176.5689" ry="18"/>
<text text-anchor="middle" x="2638.0317" y="-14.3" font-family="FreeSans" font-size="14.00" fill="#000000">Documentable::DocPage::Index::Type</text>
</a>
</g>
</g>
<!-- Documentable::DocPage::Index::Type&#45;&gt;Documentable::DocPage -->
<g id="edge7" class="edge">
<title>Documentable::DocPage::Index::Type&#45;&gt;Documentable::DocPage</title>
<path fill="none" stroke="#000000" d="M2524.8522,-31.8823C2416.5196,-45.1701 2254.6741,-65.0217 2150.9843,-77.7401"/>
<polygon fill="#000000" stroke="#000000" points="2150.3228,-74.2949 2140.8234,-78.9864 2151.1751,-81.2428 2150.3228,-74.2949"/>
</g>
<!-- Documentable::DocPage::Primary::Language -->
<g id="node9" class="node">
<title>Documentable::DocPage::Primary::Language</title>
<g id="a_node9"><a xlink:href="/type/Documentable::DocPage::Primary::Language" xlink:title="Documentable::DocPage::Primary::Language">
<ellipse fill="none" stroke="#000000" cx="3039.0317" cy="-18" rx="206.0634" ry="18"/>
<text text-anchor="middle" x="3039.0317" y="-14.3" font-family="FreeSans" font-size="14.00" fill="#000000">Documentable::DocPage::Primary::Language</text>
</a>
</g>
</g>
<!-- Documentable::DocPage::Primary::Language&#45;&gt;Documentable::DocPage -->
<g id="edge8" class="edge">
<title>Documentable::DocPage::Primary::Language&#45;&gt;Documentable::DocPage</title>
<path fill="none" stroke="#000000" d="M2889.9999,-30.4771C2853.1738,-33.5602 2824.0317,-36 2824.0317,-36 2824.0317,-36 2379.9078,-67.0255 2164.9412,-82.0425"/>
<polygon fill="#000000" stroke="#000000" points="2164.6123,-78.5569 2154.8806,-82.7454 2165.1002,-85.5399 2164.6123,-78.5569"/>
</g>
<!-- Documentable::DocPage::Index::Programs -->
<g id="node10" class="node">
<title>Documentable::DocPage::Index::Programs</title>
<g id="a_node10"><a xlink:href="/type/Documentable::DocPage::Index::Programs" xlink:title="Documentable::DocPage::Index::Programs">
<ellipse fill="none" stroke="#000000" cx="3459.0317" cy="-18" rx="196.0654" ry="18"/>
<text text-anchor="middle" x="3459.0317" y="-14.3" font-family="FreeSans" font-size="14.00" fill="#000000">Documentable::DocPage::Index::Programs</text>
</a>
</g>
</g>
<!-- Documentable::DocPage::Index::Programs&#45;&gt;Documentable::DocPage -->
<g id="edge9" class="edge">
<title>Documentable::DocPage::Index::Programs&#45;&gt;Documentable::DocPage</title>
<path fill="none" stroke="#000000" d="M3317.2112,-30.4525C3281.966,-33.5472 3254.0317,-36 3254.0317,-36 3254.0317,-36 2473.864,-71.02 2170.0768,-84.6563"/>
<polygon fill="#000000" stroke="#000000" points="2169.7447,-81.1676 2159.9117,-85.1126 2170.0586,-88.1606 2169.7447,-81.1676"/>
</g>
<!-- Documentable::DocPage::Secondary -->
<g id="node11" class="node">
<title>Documentable::DocPage::Secondary</title>
<g id="a_node11"><a xlink:href="/type/Documentable::DocPage::Secondary" xlink:title="Documentable::DocPage::Secondary">
<ellipse fill="none" stroke="#000000" cx="3840.0317" cy="-18" rx="167.0704" ry="18"/>
<text text-anchor="middle" x="3840.0317" y="-14.3" font-family="FreeSans" font-size="14.00" fill="#000000">Documentable::DocPage::Secondary</text>
</a>
</g>
</g>
<!-- Documentable::DocPage::Secondary&#45;&gt;Documentable::DocPage -->
<g id="edge10" class="edge">
<title>Documentable::DocPage::Secondary&#45;&gt;Documentable::DocPage</title>
<path fill="none" stroke="#000000" d="M3718.7545,-30.4034C3688.2688,-33.5212 3664.0317,-36 3664.0317,-36 3664.0317,-36 2546.7838,-73.4032 2171.9633,-85.9515"/>
<polygon fill="#000000" stroke="#000000" points="2171.777,-82.4556 2161.8997,-86.2884 2172.0113,-89.4517 2171.777,-82.4556"/>
</g>
</g>
</svg>
