<?xml version="1.0" encoding="UTF-8" standalone="no"?>
<!DOCTYPE svg PUBLIC "-//W3C//DTD SVG 1.1//EN"
 "http://www.w3.org/Graphics/SVG/1.1/DTD/svg11.dtd">
<!-- Generated by graphviz version 2.40.1 (0)
 -->
<!-- Title: perl6&#45;type&#45;graph Pages: 1 -->
<svg width="4015pt" height="116pt"
 viewBox="0.00 0.00 4015.12 116.00" xmlns="http://www.w3.org/2000/svg" xmlns:xlink="http://www.w3.org/1999/xlink">
<g id="graph0" class="graph" transform="scale(1 1) rotate(0) translate(4 112)">
<title>perl6&#45;type&#45;graph</title>
<polygon fill="#ffffff" stroke="transparent" points="-4,4 -4,-112 4011.1182,-112 4011.1182,4 -4,4"/>
<!-- Documentable::DocPage -->
<g id="node1" class="node">
<title>Documentable::DocPage</title>
<g id="a_node1"><a xlink:href="/type/Documentable::DocPage" xlink:title="Documentable::DocPage">
<ellipse fill="none" stroke="#6666ff" cx="1998.0352" cy="-90" rx="113.18" ry="18"/>
<text text-anchor="middle" x="1998.0352" y="-86.3" font-family="FreeSans" font-size="14.00" fill="#6666ff">Documentable::DocPage</text>
</a>
</g>
</g>
<!-- Documentable::DocPage::Secondary -->
<g id="node2" class="node">
<title>Documentable::DocPage::Secondary</title>
<g id="a_node2"><a xlink:href="/type/Documentable::DocPage::Secondary" xlink:title="Documentable::DocPage::Secondary">
<ellipse fill="none" stroke="#000000" cx="167.0352" cy="-18" rx="167.0704" ry="18"/>
<text text-anchor="middle" x="167.0352" y="-14.3" font-family="FreeSans" font-size="14.00" fill="#000000">Documentable::DocPage::Secondary</text>
</a>
</g>
</g>
<!-- Documentable::DocPage::Secondary&#45;&gt;Documentable::DocPage -->
<g id="edge1" class="edge">
<title>Documentable::DocPage::Secondary&#45;&gt;Documentable::DocPage</title>
<path fill="none" stroke="#000000" d="M288.3124,-30.4034C318.7981,-33.5212 343.0352,-36 343.0352,-36 343.0352,-36 1495.3806,-73.5992 1876.9575,-86.0494"/>
<polygon fill="#000000" stroke="#000000" points="1877.0899,-89.5555 1887.1988,-86.3836 1877.3183,-82.5592 1877.0899,-89.5555"/>
</g>
<!-- Documentable::DocPage::Primary::Programs -->
<g id="node3" class="node">
<title>Documentable::DocPage::Primary::Programs</title>
<g id="a_node3"><a xlink:href="/type/Documentable::DocPage::Primary::Programs" xlink:title="Documentable::DocPage::Primary::Programs">
<ellipse fill="none" stroke="#000000" cx="558.0352" cy="-18" rx="206.0634" ry="18"/>
<text text-anchor="middle" x="558.0352" y="-14.3" font-family="FreeSans" font-size="14.00" fill="#000000">Documentable::DocPage::Primary::Programs</text>
</a>
</g>
</g>
<!-- Documentable::DocPage::Primary::Programs&#45;&gt;Documentable::DocPage -->
<g id="edge2" class="edge">
<title>Documentable::DocPage::Primary::Programs&#45;&gt;Documentable::DocPage</title>
<path fill="none" stroke="#000000" d="M707.067,-30.4771C743.8931,-33.5602 773.0352,-36 773.0352,-36 773.0352,-36 1570.3305,-71.1461 1878.4775,-84.7297"/>
<polygon fill="#000000" stroke="#000000" points="1878.6417,-88.2402 1888.7861,-85.1841 1878.95,-81.247 1878.6417,-88.2402"/>
</g>
<!-- Documentable::DocPage::Index::Programs -->
<g id="node4" class="node">
<title>Documentable::DocPage::Index::Programs</title>
<g id="a_node4"><a xlink:href="/type/Documentable::DocPage::Index::Programs" xlink:title="Documentable::DocPage::Index::Programs">
<ellipse fill="none" stroke="#000000" cx="978.0352" cy="-18" rx="196.0654" ry="18"/>
<text text-anchor="middle" x="978.0352" y="-14.3" font-family="FreeSans" font-size="14.00" fill="#000000">Documentable::DocPage::Index::Programs</text>
</a>
</g>
</g>
<!-- Documentable::DocPage::Index::Programs&#45;&gt;Documentable::DocPage -->
<g id="edge3" class="edge">
<title>Documentable::DocPage::Index::Programs&#45;&gt;Documentable::DocPage</title>
<path fill="none" stroke="#000000" d="M1119.8557,-30.4525C1155.1009,-33.5472 1183.0352,-36 1183.0352,-36 1183.0352,-36 1658.9151,-67.5307 1883.4023,-82.4047"/>
<polygon fill="#000000" stroke="#000000" points="1883.3626,-85.9096 1893.5722,-83.0785 1883.8255,-78.925 1883.3626,-85.9096"/>
</g>
<!-- Documentable::DocPage::Index::Routine -->
<g id="node5" class="node">
<title>Documentable::DocPage::Index::Routine</title>
<g id="a_node5"><a xlink:href="/type/Documentable::DocPage::Index::Routine" xlink:title="Documentable::DocPage::Index::Routine">
<ellipse fill="none" stroke="#000000" cx="1383.0352" cy="-18" rx="191.1661" ry="18"/>
<text text-anchor="middle" x="1383.0352" y="-14.3" font-family="FreeSans" font-size="14.00" fill="#000000">Documentable::DocPage::Index::Routine</text>
</a>
</g>
</g>
<!-- Documentable::DocPage::Index::Routine&#45;&gt;Documentable::DocPage -->
<g id="edge4" class="edge">
<title>Documentable::DocPage::Index::Routine&#45;&gt;Documentable::DocPage</title>
<path fill="none" stroke="#000000" d="M1503.0733,-32.0532C1617.7027,-45.4733 1788.5339,-65.473 1896.554,-78.1193"/>
<polygon fill="#000000" stroke="#000000" points="1896.4683,-81.6331 1906.8075,-79.3197 1897.2824,-74.6806 1896.4683,-81.6331"/>
</g>
<!-- Documentable::DocPage::Index::Language -->
<g id="node6" class="node">
<title>Documentable::DocPage::Index::Language</title>
<g id="a_node6"><a xlink:href="/type/Documentable::DocPage::Index::Language" xlink:title="Documentable::DocPage::Index::Language">
<ellipse fill="none" stroke="#000000" cx="1788.0352" cy="-18" rx="196.0654" ry="18"/>
<text text-anchor="middle" x="1788.0352" y="-14.3" font-family="FreeSans" font-size="14.00" fill="#000000">Documentable::DocPage::Index::Language</text>
</a>
</g>
</g>
<!-- Documentable::DocPage::Index::Language&#45;&gt;Documentable::DocPage -->
<g id="edge5" class="edge">
<title>Documentable::DocPage::Index::Language&#45;&gt;Documentable::DocPage</title>
<path fill="none" stroke="#000000" d="M1838.8703,-35.4292C1869.5622,-45.9521 1908.7567,-59.3902 1940.5711,-70.298"/>
<polygon fill="#000000" stroke="#000000" points="1939.5954,-73.6634 1950.19,-73.5959 1941.8657,-67.0418 1939.5954,-73.6634"/>
</g>
<!-- Documentable::DocPage::Primary::Language -->
<g id="node7" class="node">
<title>Documentable::DocPage::Primary::Language</title>
<g id="a_node7"><a xlink:href="/type/Documentable::DocPage::Primary::Language" xlink:title="Documentable::DocPage::Primary::Language">
<ellipse fill="none" stroke="#000000" cx="2208.0352" cy="-18" rx="206.0634" ry="18"/>
<text text-anchor="middle" x="2208.0352" y="-14.3" font-family="FreeSans" font-size="14.00" fill="#000000">Documentable::DocPage::Primary::Language</text>
</a>
</g>
</g>
<!-- Documentable::DocPage::Primary::Language&#45;&gt;Documentable::DocPage -->
<g id="edge6" class="edge">
<title>Documentable::DocPage::Primary::Language&#45;&gt;Documentable::DocPage</title>
<path fill="none" stroke="#000000" d="M2156.9319,-35.5211C2126.2348,-46.0458 2087.1057,-59.4615 2055.3588,-70.3462"/>
<polygon fill="#000000" stroke="#000000" points="2054.0851,-67.0828 2045.7608,-73.6369 2056.3554,-73.7044 2054.0851,-67.0828"/>
</g>
<!-- Documentable::DocPage::SubIndex::Routine -->
<g id="node8" class="node">
<title>Documentable::DocPage::SubIndex::Routine</title>
<g id="a_node8"><a xlink:href="/type/Documentable::DocPage::SubIndex::Routine" xlink:title="Documentable::DocPage::SubIndex::Routine">
<ellipse fill="none" stroke="#000000" cx="2638.0352" cy="-18" rx="206.0634" ry="18"/>
<text text-anchor="middle" x="2638.0352" y="-14.3" font-family="FreeSans" font-size="14.00" fill="#000000">Documentable::DocPage::SubIndex::Routine</text>
</a>
</g>
</g>
<!-- Documentable::DocPage::SubIndex::Routine&#45;&gt;Documentable::DocPage -->
<g id="edge7" class="edge">
<title>Documentable::DocPage::SubIndex::Routine&#45;&gt;Documentable::DocPage</title>
<path fill="none" stroke="#000000" d="M2511.5918,-32.2249C2391.3067,-45.7569 2212.5767,-65.8641 2100.8117,-78.4376"/>
<polygon fill="#000000" stroke="#000000" points="2100.0899,-74.9967 2090.5438,-79.5928 2100.8725,-81.9528 2100.0899,-74.9967"/>
</g>
<!-- Documentable::DocPage::Primary::Type -->
<g id="node9" class="node">
<title>Documentable::DocPage::Primary::Type</title>
<g id="a_node9"><a xlink:href="/type/Documentable::DocPage::Primary::Type" xlink:title="Documentable::DocPage::Primary::Type">
<ellipse fill="none" stroke="#000000" cx="3049.0352" cy="-18" rx="186.5669" ry="18"/>
<text text-anchor="middle" x="3049.0352" y="-14.3" font-family="FreeSans" font-size="14.00" fill="#000000">Documentable::DocPage::Primary::Type</text>
</a>
</g>
</g>
<!-- Documentable::DocPage::Primary::Type&#45;&gt;Documentable::DocPage -->
<g id="edge8" class="edge">
<title>Documentable::DocPage::Primary::Type&#45;&gt;Documentable::DocPage</title>
<path fill="none" stroke="#000000" d="M2913.7085,-30.428C2879.8846,-33.5342 2853.0352,-36 2853.0352,-36 2853.0352,-36 2346.9944,-67.9605 2113.5322,-82.7055"/>
<polygon fill="#000000" stroke="#000000" points="2113.0629,-79.228 2103.3034,-83.3515 2113.5041,-86.2141 2113.0629,-79.228"/>
</g>
<!-- Documentable::DocPage::Index::Type -->
<g id="node10" class="node">
<title>Documentable::DocPage::Index::Type</title>
<g id="a_node10"><a xlink:href="/type/Documentable::DocPage::Index::Type" xlink:title="Documentable::DocPage::Index::Type">
<ellipse fill="none" stroke="#000000" cx="3430.0352" cy="-18" rx="176.5689" ry="18"/>
<text text-anchor="middle" x="3430.0352" y="-14.3" font-family="FreeSans" font-size="14.00" fill="#000000">Documentable::DocPage::Index::Type</text>
</a>
</g>
</g>
<!-- Documentable::DocPage::Index::Type&#45;&gt;Documentable::DocPage -->
<g id="edge9" class="edge">
<title>Documentable::DocPage::Index::Type&#45;&gt;Documentable::DocPage</title>
<path fill="none" stroke="#000000" d="M3302.0508,-30.4525C3270.2442,-33.5472 3245.0352,-36 3245.0352,-36 3245.0352,-36 2430.0175,-71.2935 2117.7755,-84.8148"/>
<polygon fill="#000000" stroke="#000000" points="2117.1719,-81.3375 2107.3327,-85.267 2117.4748,-88.331 2117.1719,-81.3375"/>
</g>
<!-- Documentable::DocPage::SubIndex::Type -->
<g id="node11" class="node">
<title>Documentable::DocPage::SubIndex::Type</title>
<g id="a_node11"><a xlink:href="/type/Documentable::DocPage::SubIndex::Type" xlink:title="Documentable::DocPage::SubIndex::Type">
<ellipse fill="none" stroke="#000000" cx="3816.0352" cy="-18" rx="191.1661" ry="18"/>
<text text-anchor="middle" x="3816.0352" y="-14.3" font-family="FreeSans" font-size="14.00" fill="#000000">Documentable::DocPage::SubIndex::Type</text>
</a>
</g>
</g>
<!-- Documentable::DocPage::SubIndex::Type&#45;&gt;Documentable::DocPage -->
<g id="edge10" class="edge">
<title>Documentable::DocPage::SubIndex::Type&#45;&gt;Documentable::DocPage</title>
<path fill="none" stroke="#000000" d="M3677.6737,-30.4525C3643.2881,-33.5472 3616.0352,-36 3616.0352,-36 3616.0352,-36 2494.6723,-73.425 2119.014,-85.9624"/>
<polygon fill="#000000" stroke="#000000" points="2118.8059,-82.4673 2108.9283,-86.299 2119.0395,-89.4634 2118.8059,-82.4673"/>
</g>
</g>
</svg>
