<?xml version="1.0" encoding="UTF-8" standalone="no"?>
<!DOCTYPE svg PUBLIC "-//W3C//DTD SVG 1.1//EN"
 "http://www.w3.org/Graphics/SVG/1.1/DTD/svg11.dtd">
<!-- Generated by graphviz version 2.40.1 (0)
 -->
<!-- Title: perl6&#45;type&#45;graph Pages: 1 -->
<svg width="4016pt" height="116pt"
 viewBox="0.00 0.00 4016.11 116.00" xmlns="http://www.w3.org/2000/svg" xmlns:xlink="http://www.w3.org/1999/xlink">
<g id="graph0" class="graph" transform="scale(1 1) rotate(0) translate(4 112)">
<title>perl6&#45;type&#45;graph</title>
<polygon fill="#ffffff" stroke="transparent" points="-4,4 -4,-112 4012.1148,-112 4012.1148,4 -4,4"/>
<!-- Documentable::DocPage -->
<g id="node1" class="node">
<title>Documentable::DocPage</title>
<g id="a_node1"><a xlink:href="/type/Documentable::DocPage" xlink:title="Documentable::DocPage">
<ellipse fill="none" stroke="#6666ff" cx="2075.0317" cy="-90" rx="113.18" ry="18"/>
<text text-anchor="middle" x="2075.0317" y="-86.3" font-family="FreeSans" font-size="14.00" fill="#6666ff">Documentable::DocPage</text>
</a>
</g>
</g>
<!-- Documentable::DocPage::Primary::Programs -->
<g id="node2" class="node">
<title>Documentable::DocPage::Primary::Programs</title>
<g id="a_node2"><a xlink:href="/type/Documentable::DocPage::Primary::Programs" xlink:title="Documentable::DocPage::Primary::Programs">
<ellipse fill="none" stroke="#000000" cx="206.0317" cy="-18" rx="206.0634" ry="18"/>
<text text-anchor="middle" x="206.0317" y="-14.3" font-family="FreeSans" font-size="14.00" fill="#000000">Documentable::DocPage::Primary::Programs</text>
</a>
</g>
</g>
<!-- Documentable::DocPage::Primary::Programs&#45;&gt;Documentable::DocPage -->
<g id="edge1" class="edge">
<title>Documentable::DocPage::Primary::Programs&#45;&gt;Documentable::DocPage</title>
<path fill="none" stroke="#000000" d="M355.0635,-30.4771C391.8896,-33.5602 421.0317,-36 421.0317,-36 421.0317,-36 1572.0132,-73.5774 1953.6953,-86.0386"/>
<polygon fill="#000000" stroke="#000000" points="1953.8309,-89.5448 1963.9398,-86.3731 1954.0594,-82.5485 1953.8309,-89.5448"/>
</g>
<!-- Documentable::DocPage::Primary::Language -->
<g id="node3" class="node">
<title>Documentable::DocPage::Primary::Language</title>
<g id="a_node3"><a xlink:href="/type/Documentable::DocPage::Primary::Language" xlink:title="Documentable::DocPage::Primary::Language">
<ellipse fill="none" stroke="#000000" cx="636.0317" cy="-18" rx="206.0634" ry="18"/>
<text text-anchor="middle" x="636.0317" y="-14.3" font-family="FreeSans" font-size="14.00" fill="#000000">Documentable::DocPage::Primary::Language</text>
</a>
</g>
</g>
<!-- Documentable::DocPage::Primary::Language&#45;&gt;Documentable::DocPage -->
<g id="edge2" class="edge">
<title>Documentable::DocPage::Primary::Language&#45;&gt;Documentable::DocPage</title>
<path fill="none" stroke="#000000" d="M785.0635,-30.4771C821.8896,-33.5602 851.0317,-36 851.0317,-36 851.0317,-36 1647.6762,-71.1461 1955.5716,-84.7297"/>
<polygon fill="#000000" stroke="#000000" points="1955.7273,-88.2399 1965.8718,-85.1841 1956.0359,-81.2467 1955.7273,-88.2399"/>
</g>
<!-- Documentable::DocPage::Index::Programs -->
<g id="node4" class="node">
<title>Documentable::DocPage::Index::Programs</title>
<g id="a_node4"><a xlink:href="/type/Documentable::DocPage::Index::Programs" xlink:title="Documentable::DocPage::Index::Programs">
<ellipse fill="none" stroke="#000000" cx="1056.0317" cy="-18" rx="196.0654" ry="18"/>
<text text-anchor="middle" x="1056.0317" y="-14.3" font-family="FreeSans" font-size="14.00" fill="#000000">Documentable::DocPage::Index::Programs</text>
</a>
</g>
</g>
<!-- Documentable::DocPage::Index::Programs&#45;&gt;Documentable::DocPage -->
<g id="edge3" class="edge">
<title>Documentable::DocPage::Index::Programs&#45;&gt;Documentable::DocPage</title>
<path fill="none" stroke="#000000" d="M1197.8522,-30.4525C1233.0974,-33.5472 1261.0317,-36 1261.0317,-36 1261.0317,-36 1735.7297,-67.491 1960.1159,-82.3766"/>
<polygon fill="#000000" stroke="#000000" points="1960.0721,-85.8813 1970.2819,-83.051 1960.5355,-78.8966 1960.0721,-85.8813"/>
</g>
<!-- Documentable::DocPage::Primary::Type -->
<g id="node5" class="node">
<title>Documentable::DocPage::Primary::Type</title>
<g id="a_node5"><a xlink:href="/type/Documentable::DocPage::Primary::Type" xlink:title="Documentable::DocPage::Primary::Type">
<ellipse fill="none" stroke="#000000" cx="1457.0317" cy="-18" rx="186.5669" ry="18"/>
<text text-anchor="middle" x="1457.0317" y="-14.3" font-family="FreeSans" font-size="14.00" fill="#000000">Documentable::DocPage::Primary::Type</text>
</a>
</g>
</g>
<!-- Documentable::DocPage::Primary::Type&#45;&gt;Documentable::DocPage -->
<g id="edge4" class="edge">
<title>Documentable::DocPage::Primary::Type&#45;&gt;Documentable::DocPage</title>
<path fill="none" stroke="#000000" d="M1576.1883,-31.8823C1691.4927,-45.3158 1864.3782,-65.4578 1973.3692,-78.1558"/>
<polygon fill="#000000" stroke="#000000" points="1973.0485,-81.642 1983.3864,-79.3229 1973.8586,-74.6891 1973.0485,-81.642"/>
</g>
<!-- Documentable::DocPage::SubIndex::Routine -->
<g id="node6" class="node">
<title>Documentable::DocPage::SubIndex::Routine</title>
<g id="a_node6"><a xlink:href="/type/Documentable::DocPage::SubIndex::Routine" xlink:title="Documentable::DocPage::SubIndex::Routine">
<ellipse fill="none" stroke="#000000" cx="1868.0317" cy="-18" rx="206.0634" ry="18"/>
<text text-anchor="middle" x="1868.0317" y="-14.3" font-family="FreeSans" font-size="14.00" fill="#000000">Documentable::DocPage::SubIndex::Routine</text>
</a>
</g>
</g>
<!-- Documentable::DocPage::SubIndex::Routine&#45;&gt;Documentable::DocPage -->
<g id="edge5" class="edge">
<title>Documentable::DocPage::SubIndex::Routine&#45;&gt;Documentable::DocPage</title>
<path fill="none" stroke="#000000" d="M1918.4049,-35.5211C1948.555,-46.0081 1986.9573,-59.3654 2018.1903,-70.2291"/>
<polygon fill="#000000" stroke="#000000" points="2017.0412,-73.535 2027.636,-73.5145 2019.3409,-66.9235 2017.0412,-73.535"/>
</g>
<!-- Documentable::DocPage::Index::Routine -->
<g id="node7" class="node">
<title>Documentable::DocPage::Index::Routine</title>
<g id="a_node7"><a xlink:href="/type/Documentable::DocPage::Index::Routine" xlink:title="Documentable::DocPage::Index::Routine">
<ellipse fill="none" stroke="#000000" cx="2283.0317" cy="-18" rx="191.1661" ry="18"/>
<text text-anchor="middle" x="2283.0317" y="-14.3" font-family="FreeSans" font-size="14.00" fill="#000000">Documentable::DocPage::Index::Routine</text>
</a>
</g>
</g>
<!-- Documentable::DocPage::Index::Routine&#45;&gt;Documentable::DocPage -->
<g id="edge6" class="edge">
<title>Documentable::DocPage::Index::Routine&#45;&gt;Documentable::DocPage</title>
<path fill="none" stroke="#000000" d="M2232.6807,-35.4292C2202.2811,-45.9521 2163.4599,-59.3902 2131.9485,-70.298"/>
<polygon fill="#000000" stroke="#000000" points="2130.7262,-67.0173 2122.4212,-73.5959 2133.016,-73.6322 2130.7262,-67.0173"/>
</g>
<!-- Documentable::DocPage::Index::Type -->
<g id="node8" class="node">
<title>Documentable::DocPage::Index::Type</title>
<g id="a_node8"><a xlink:href="/type/Documentable::DocPage::Index::Type" xlink:title="Documentable::DocPage::Index::Type">
<ellipse fill="none" stroke="#000000" cx="2669.0317" cy="-18" rx="176.5689" ry="18"/>
<text text-anchor="middle" x="2669.0317" y="-14.3" font-family="FreeSans" font-size="14.00" fill="#000000">Documentable::DocPage::Index::Type</text>
</a>
</g>
</g>
<!-- Documentable::DocPage::Index::Type&#45;&gt;Documentable::DocPage -->
<g id="edge7" class="edge">
<title>Documentable::DocPage::Index::Type&#45;&gt;Documentable::DocPage</title>
<path fill="none" stroke="#000000" d="M2555.2054,-31.7971C2445.2276,-45.1278 2280.2732,-65.1222 2175.1667,-77.8624"/>
<polygon fill="#000000" stroke="#000000" points="2174.6919,-74.3943 2165.1857,-79.0722 2175.5343,-81.3434 2174.6919,-74.3943"/>
</g>
<!-- Documentable::DocPage::Index::Language -->
<g id="node9" class="node">
<title>Documentable::DocPage::Index::Language</title>
<g id="a_node9"><a xlink:href="/type/Documentable::DocPage::Index::Language" xlink:title="Documentable::DocPage::Index::Language">
<ellipse fill="none" stroke="#000000" cx="3060.0317" cy="-18" rx="196.0654" ry="18"/>
<text text-anchor="middle" x="3060.0317" y="-14.3" font-family="FreeSans" font-size="14.00" fill="#000000">Documentable::DocPage::Index::Language</text>
</a>
</g>
</g>
<!-- Documentable::DocPage::Index::Language&#45;&gt;Documentable::DocPage -->
<g id="edge8" class="edge">
<title>Documentable::DocPage::Index::Language&#45;&gt;Documentable::DocPage</title>
<path fill="none" stroke="#000000" d="M2918.2112,-30.4525C2882.966,-33.5472 2855.0317,-36 2855.0317,-36 2855.0317,-36 2405.7486,-67.1042 2189.1485,-82.0996"/>
<polygon fill="#000000" stroke="#000000" points="2188.7472,-78.6189 2179.0129,-82.8013 2189.2307,-85.6022 2188.7472,-78.6189"/>
</g>
<!-- Documentable::DocPage::Secondary -->
<g id="node10" class="node">
<title>Documentable::DocPage::Secondary</title>
<g id="a_node10"><a xlink:href="/type/Documentable::DocPage::Secondary" xlink:title="Documentable::DocPage::Secondary">
<ellipse fill="none" stroke="#000000" cx="3441.0317" cy="-18" rx="167.0704" ry="18"/>
<text text-anchor="middle" x="3441.0317" y="-14.3" font-family="FreeSans" font-size="14.00" fill="#000000">Documentable::DocPage::Secondary</text>
</a>
</g>
</g>
<!-- Documentable::DocPage::Secondary&#45;&gt;Documentable::DocPage -->
<g id="edge9" class="edge">
<title>Documentable::DocPage::Secondary&#45;&gt;Documentable::DocPage</title>
<path fill="none" stroke="#000000" d="M3319.7545,-30.4034C3289.2688,-33.5212 3265.0317,-36 3265.0317,-36 3265.0317,-36 2495.1443,-70.9361 2193.8733,-84.6072"/>
<polygon fill="#000000" stroke="#000000" points="2193.622,-81.1149 2183.7909,-85.0647 2193.9394,-88.1077 2193.622,-81.1149"/>
</g>
<!-- Documentable::DocPage::SubIndex::Type -->
<g id="node11" class="node">
<title>Documentable::DocPage::SubIndex::Type</title>
<g id="a_node11"><a xlink:href="/type/Documentable::DocPage::SubIndex::Type" xlink:title="Documentable::DocPage::SubIndex::Type">
<ellipse fill="none" stroke="#000000" cx="3817.0317" cy="-18" rx="191.1661" ry="18"/>
<text text-anchor="middle" x="3817.0317" y="-14.3" font-family="FreeSans" font-size="14.00" fill="#000000">Documentable::DocPage::SubIndex::Type</text>
</a>
</g>
</g>
<!-- Documentable::DocPage::SubIndex::Type&#45;&gt;Documentable::DocPage -->
<g id="edge10" class="edge">
<title>Documentable::DocPage::SubIndex::Type&#45;&gt;Documentable::DocPage</title>
<path fill="none" stroke="#000000" d="M3678.6702,-30.4525C3644.2847,-33.5472 3617.0317,-36 3617.0317,-36 3617.0317,-36 2558.778,-73.0595 2195.6363,-85.7765"/>
<polygon fill="#000000" stroke="#000000" points="2195.4903,-82.2794 2185.619,-86.1273 2195.7354,-89.2751 2195.4903,-82.2794"/>
</g>
</g>
</svg>
